<svg xmlns="http://www.w3.org/2000/svg" xmlns:xlink="http://www.w3.org/1999/xlink" width="50" height="50" viewBox="0 0 50 50">
  <defs>
    <clipPath id="clip-behance">
      <rect width="50" height="50"/>
    </clipPath>
  </defs>
  <g id="behance" clip-path="url(#clip-behance)">
    <path id="Subtraction_11" data-name="Subtraction 11" d="M18.919,37.838A18.919,18.919,0,0,1,5.541,5.541,18.919,18.919,0,1,1,32.3,32.3,18.8,18.8,0,0,1,18.919,37.838ZM6.622,11.627V27.082h6.96a10.819,10.819,0,0,0,2.183-.209,4.23,4.23,0,0,0,1.744-.776A4.3,4.3,0,0,0,18.6,24.884a4.532,4.532,0,0,0,.686-2.467,4.109,4.109,0,0,0-.6-2.264A3.446,3.446,0,0,0,16.9,18.788a3.659,3.659,0,0,0,1.177-.879,3.465,3.465,0,0,0,.714-2.276,3.951,3.951,0,0,0-.706-2.36,4.77,4.77,0,0,0-4-1.646Zm19.345,3.608a5.368,5.368,0,0,0-3.961,1.535,6.021,6.021,0,0,0-1.524,4.413,5.407,5.407,0,0,0,1.688,4.435,6.067,6.067,0,0,0,3.9,1.362,5.4,5.4,0,0,0,4.164-1.616,3.617,3.617,0,0,0,1.072-2H28.351a2.423,2.423,0,0,1-.594.76,2.45,2.45,0,0,1-1.607.508,2.926,2.926,0,0,1-1.6-.415A2.662,2.662,0,0,1,23.4,21.881h8.061a14.515,14.515,0,0,0-.1-2.2,5.488,5.488,0,0,0-.882-2.289,4.51,4.51,0,0,0-1.911-1.64A6.342,6.342,0,0,0,25.966,15.236ZM22.83,12.268v1.546h6.224V12.268ZM13.453,24.4H10.186V20.28H13.5a3.881,3.881,0,0,1,1.545.261,1.661,1.661,0,0,1,.983,1.656,1.958,1.958,0,0,1-1.014,1.93A3.61,3.61,0,0,1,13.453,24.4Zm15-4.427H23.467a3,3,0,0,1,.772-1.715,2.3,2.3,0,0,1,1.727-.635,2.532,2.532,0,0,1,1.716.6,2.433,2.433,0,0,1,.774,1.749Zm-15-2.251H10.186V14.31h2.877a5.852,5.852,0,0,1,1.824.242,1.388,1.388,0,0,1,.83,1.426,1.466,1.466,0,0,1-.627,1.359A3.119,3.119,0,0,1,13.456,17.72Z" transform="translate(6 6)" fill="#fff"/>
  </g>
</svg>
