<svg width="765" height="157" viewBox="0 0 765 157" fill="none" xmlns="http://www.w3.org/2000/svg">
<rect width="765" height="157" fill="white"/>
<rect width="153" height="157" fill="url(#paint0_linear)"/>
<rect x="153" width="153" height="157" fill="#1AC9FC"/>
<rect x="306" width="153" height="157" fill="#01193B"/>
<rect x="459" width="153" height="157" fill="#1D73F1"/>
<rect x="612" width="153" height="157" fill="#288CFA"/>
<path d="M33.9 42.098L33.36 45.23H34.206C34.482 45.23 34.71 45.326 34.89 45.518C35.082 45.698 35.178 45.926 35.178 46.202C35.178 46.466 35.082 46.682 34.89 46.85C34.71 47.018 34.482 47.102 34.206 47.102H33.036L32.676 49.226C32.64 49.454 32.538 49.64 32.37 49.784C32.214 49.928 32.016 50 31.776 50C31.488 50 31.254 49.91 31.074 49.73C30.906 49.55 30.822 49.316 30.822 49.028C30.822 48.92 30.828 48.842 30.84 48.794L31.128 47.102H28.176L27.816 49.226C27.78 49.466 27.678 49.658 27.51 49.802C27.342 49.934 27.138 50 26.898 50C26.622 50 26.394 49.91 26.214 49.73C26.046 49.538 25.962 49.298 25.962 49.01C25.962 48.914 25.968 48.842 25.98 48.794L26.268 47.102H25.62C25.344 47.102 25.11 47.012 24.918 46.832C24.738 46.64 24.648 46.406 24.648 46.13C24.648 45.866 24.738 45.65 24.918 45.482C25.11 45.314 25.344 45.23 25.62 45.23H26.592L27.132 42.098H26.286C26.01 42.098 25.776 42.008 25.584 41.828C25.404 41.636 25.314 41.402 25.314 41.126C25.314 40.862 25.404 40.646 25.584 40.478C25.776 40.31 26.01 40.226 26.286 40.226H27.438L27.798 38.174C27.834 37.946 27.93 37.76 28.086 37.616C28.254 37.472 28.458 37.4 28.698 37.4C28.986 37.4 29.214 37.49 29.382 37.67C29.562 37.85 29.652 38.084 29.652 38.372C29.652 38.48 29.646 38.558 29.634 38.606L29.364 40.226H32.298L32.658 38.174C32.694 37.934 32.796 37.748 32.964 37.616C33.132 37.472 33.336 37.4 33.576 37.4C33.852 37.4 34.074 37.496 34.242 37.688C34.422 37.868 34.512 38.102 34.512 38.39C34.512 38.486 34.506 38.558 34.494 38.606L34.224 40.226H34.854C35.13 40.226 35.358 40.322 35.538 40.514C35.73 40.694 35.826 40.922 35.826 41.198C35.826 41.462 35.73 41.678 35.538 41.846C35.358 42.014 35.13 42.098 34.854 42.098H33.9ZM31.452 45.23L31.992 42.098H29.04L28.5 45.23H31.452ZM42.1665 50.18C41.1585 50.18 40.2885 49.91 39.5565 49.37C38.8365 48.83 38.2905 48.074 37.9185 47.102C37.5465 46.118 37.3605 44.984 37.3605 43.7C37.3605 42.416 37.5465 41.288 37.9185 40.316C38.2905 39.332 38.8365 38.57 39.5565 38.03C40.2885 37.49 41.1585 37.22 42.1665 37.22C43.1745 37.22 44.0385 37.49 44.7585 38.03C45.4905 38.57 46.0425 39.332 46.4145 40.316C46.7865 41.288 46.9725 42.416 46.9725 43.7C46.9725 44.984 46.7865 46.118 46.4145 47.102C46.0425 48.074 45.4905 48.83 44.7585 49.37C44.0385 49.91 43.1745 50.18 42.1665 50.18ZM42.1665 48.02C42.9345 48.02 43.5345 47.654 43.9665 46.922C44.4105 46.19 44.6325 45.116 44.6325 43.7C44.6325 42.284 44.4105 41.21 43.9665 40.478C43.5345 39.746 42.9345 39.38 42.1665 39.38C41.3985 39.38 40.7925 39.746 40.3485 40.478C39.9165 41.21 39.7005 42.284 39.7005 43.7C39.7005 45.116 39.9165 46.19 40.3485 46.922C40.7925 47.654 41.3985 48.02 42.1665 48.02ZM51.9971 37.4C52.2971 37.4 52.5491 37.508 52.7531 37.724C52.9571 37.928 53.0591 38.186 53.0591 38.498V48.902C53.0591 49.214 52.9451 49.478 52.7171 49.694C52.4891 49.898 52.2071 50 51.8711 50C51.5351 50 51.2591 49.898 51.0431 49.694C50.8271 49.478 50.7191 49.214 50.7191 48.902V40.37L49.6031 41.054C49.4231 41.162 49.2311 41.216 49.0271 41.216C48.7271 41.216 48.4691 41.102 48.2531 40.874C48.0491 40.646 47.9471 40.394 47.9471 40.118C47.9471 39.926 47.9951 39.746 48.0911 39.578C48.1991 39.41 48.3371 39.278 48.5051 39.182L51.2231 37.562C51.4271 37.454 51.6851 37.4 51.9971 37.4ZM58.7137 37.4C59.0137 37.4 59.2657 37.508 59.4697 37.724C59.6737 37.928 59.7757 38.186 59.7757 38.498V48.902C59.7757 49.214 59.6617 49.478 59.4337 49.694C59.2057 49.898 58.9237 50 58.5877 50C58.2517 50 57.9757 49.898 57.7597 49.694C57.5437 49.478 57.4357 49.214 57.4357 48.902V40.37L56.3197 41.054C56.1397 41.162 55.9477 41.216 55.7437 41.216C55.4437 41.216 55.1857 41.102 54.9697 40.874C54.7657 40.646 54.6637 40.394 54.6637 40.118C54.6637 39.926 54.7117 39.746 54.8077 39.578C54.9157 39.41 55.0537 39.278 55.2217 39.182L57.9397 37.562C58.1437 37.454 58.4017 37.4 58.7137 37.4ZM66.2044 37.166C67.0324 37.166 67.7704 37.4 68.4184 37.868C69.0664 38.324 69.5644 38.93 69.9124 39.686C70.2604 40.43 70.4344 41.228 70.4344 42.08C70.4344 42.956 70.2784 43.922 69.9664 44.978C69.6664 46.022 69.1084 47.012 68.2924 47.948C67.4884 48.884 66.3904 49.55 64.9984 49.946C64.8544 49.982 64.7164 50 64.5844 50C64.2724 50 64.0144 49.922 63.8104 49.766C63.6064 49.598 63.5044 49.34 63.5044 48.992C63.5044 48.728 63.5884 48.5 63.7564 48.308C63.9364 48.104 64.1704 47.96 64.4584 47.876C65.2144 47.66 65.9104 47.276 66.5464 46.724C67.1944 46.172 67.6684 45.512 67.9684 44.744C67.3684 45.26 66.6844 45.518 65.9164 45.518C65.2924 45.518 64.6744 45.332 64.0624 44.96C63.4624 44.576 62.9704 44.066 62.5864 43.43C62.2024 42.782 62.0104 42.086 62.0104 41.342C62.0104 40.586 62.1964 39.89 62.5684 39.254C62.9524 38.606 63.4624 38.096 64.0984 37.724C64.7344 37.352 65.4364 37.166 66.2044 37.166ZM66.2044 43.538C66.7804 43.538 67.2604 43.328 67.6444 42.908C68.0404 42.488 68.2384 41.966 68.2384 41.342C68.2384 40.718 68.0404 40.196 67.6444 39.776C67.2604 39.356 66.7804 39.146 66.2044 39.146C65.6404 39.146 65.1604 39.356 64.7644 39.776C64.3684 40.196 64.1704 40.718 64.1704 41.342C64.1704 41.966 64.3684 42.488 64.7644 42.908C65.1604 43.328 65.6404 43.538 66.2044 43.538ZM76.6397 42.008C77.2997 42.032 77.8817 42.224 78.3857 42.584C78.9017 42.944 79.2977 43.418 79.5737 44.006C79.8497 44.582 79.9877 45.2 79.9877 45.86C79.9877 46.736 79.7897 47.504 79.3937 48.164C78.9977 48.812 78.4397 49.31 77.7197 49.658C76.9997 50.006 76.1597 50.18 75.1997 50.18C74.7677 50.18 74.3357 50.126 73.9037 50.018C73.4717 49.91 73.0937 49.766 72.7697 49.586C72.3257 49.346 72.1037 49.022 72.1037 48.614C72.1037 48.326 72.2057 48.062 72.4097 47.822C72.6137 47.582 72.8597 47.462 73.1477 47.462C73.3877 47.462 73.6457 47.552 73.9217 47.732C74.4377 48.128 75.0077 48.326 75.6317 48.326C76.0037 48.326 76.3577 48.236 76.6937 48.056C77.0297 47.864 77.2997 47.594 77.5037 47.246C77.7197 46.886 77.8277 46.478 77.8277 46.022C77.8277 45.374 77.6297 44.87 77.2337 44.51C76.8497 44.15 76.3817 43.97 75.8297 43.97C75.5897 43.97 75.3797 43.994 75.1997 44.042C75.0197 44.09 74.9117 44.12 74.8757 44.132C74.5637 44.228 74.3057 44.276 74.1017 44.276C73.8377 44.276 73.6277 44.186 73.4717 44.006C73.3157 43.814 73.2377 43.58 73.2377 43.304C73.2377 43.136 73.2677 42.986 73.3277 42.854C73.3877 42.722 73.4897 42.578 73.6337 42.422L76.4237 39.38H72.8597C72.5717 39.38 72.3317 39.284 72.1397 39.092C71.9477 38.9 71.8517 38.66 71.8517 38.372C71.8517 38.096 71.9477 37.868 72.1397 37.688C72.3317 37.496 72.5717 37.4 72.8597 37.4H78.3677C78.7277 37.4 79.0037 37.502 79.1957 37.706C79.3877 37.898 79.4837 38.156 79.4837 38.48C79.4837 38.768 79.3397 39.056 79.0517 39.344L76.6397 42.008ZM89.786 43.016C90.422 43.268 90.938 43.652 91.334 44.168C91.742 44.684 91.946 45.35 91.946 46.166C91.946 47.594 91.538 48.59 90.722 49.154C89.906 49.718 88.934 50 87.806 50H83.324C83.012 50 82.748 49.898 82.532 49.694C82.328 49.478 82.226 49.214 82.226 48.902V38.498C82.226 38.186 82.328 37.928 82.532 37.724C82.748 37.508 83.012 37.4 83.324 37.4H87.86C90.14 37.4 91.28 38.468 91.28 40.604C91.28 41.144 91.148 41.624 90.884 42.044C90.632 42.452 90.266 42.776 89.786 43.016ZM88.94 41C88.94 40.508 88.814 40.142 88.562 39.902C88.322 39.65 87.98 39.524 87.536 39.524H84.566V42.332H87.59C87.95 42.332 88.262 42.212 88.526 41.972C88.802 41.732 88.94 41.408 88.94 41ZM87.806 47.93C88.37 47.93 88.808 47.78 89.12 47.48C89.444 47.18 89.606 46.742 89.606 46.166C89.606 45.458 89.42 44.996 89.048 44.78C88.676 44.564 88.22 44.456 87.68 44.456H84.566V47.93H87.806ZM33.9 72.098L33.36 75.23H34.206C34.482 75.23 34.71 75.326 34.89 75.518C35.082 75.698 35.178 75.926 35.178 76.202C35.178 76.466 35.082 76.682 34.89 76.85C34.71 77.018 34.482 77.102 34.206 77.102H33.036L32.676 79.226C32.64 79.454 32.538 79.64 32.37 79.784C32.214 79.928 32.016 80 31.776 80C31.488 80 31.254 79.91 31.074 79.73C30.906 79.55 30.822 79.316 30.822 79.028C30.822 78.92 30.828 78.842 30.84 78.794L31.128 77.102H28.176L27.816 79.226C27.78 79.466 27.678 79.658 27.51 79.802C27.342 79.934 27.138 80 26.898 80C26.622 80 26.394 79.91 26.214 79.73C26.046 79.538 25.962 79.298 25.962 79.01C25.962 78.914 25.968 78.842 25.98 78.794L26.268 77.102H25.62C25.344 77.102 25.11 77.012 24.918 76.832C24.738 76.64 24.648 76.406 24.648 76.13C24.648 75.866 24.738 75.65 24.918 75.482C25.11 75.314 25.344 75.23 25.62 75.23H26.592L27.132 72.098H26.286C26.01 72.098 25.776 72.008 25.584 71.828C25.404 71.636 25.314 71.402 25.314 71.126C25.314 70.862 25.404 70.646 25.584 70.478C25.776 70.31 26.01 70.226 26.286 70.226H27.438L27.798 68.174C27.834 67.946 27.93 67.76 28.086 67.616C28.254 67.472 28.458 67.4 28.698 67.4C28.986 67.4 29.214 67.49 29.382 67.67C29.562 67.85 29.652 68.084 29.652 68.372C29.652 68.48 29.646 68.558 29.634 68.606L29.364 70.226H32.298L32.658 68.174C32.694 67.934 32.796 67.748 32.964 67.616C33.132 67.472 33.336 67.4 33.576 67.4C33.852 67.4 34.074 67.496 34.242 67.688C34.422 67.868 34.512 68.102 34.512 68.39C34.512 68.486 34.506 68.558 34.494 68.606L34.224 70.226H34.854C35.13 70.226 35.358 70.322 35.538 70.514C35.73 70.694 35.826 70.922 35.826 71.198C35.826 71.462 35.73 71.678 35.538 71.846C35.358 72.014 35.13 72.098 34.854 72.098H33.9ZM31.452 75.23L31.992 72.098H29.04L28.5 75.23H31.452ZM40.7805 67.4C41.0805 67.4 41.3325 67.508 41.5365 67.724C41.7405 67.928 41.8425 68.186 41.8425 68.498V78.902C41.8425 79.214 41.7285 79.478 41.5005 79.694C41.2725 79.898 40.9905 80 40.6545 80C40.3185 80 40.0425 79.898 39.8265 79.694C39.6105 79.478 39.5025 79.214 39.5025 78.902V70.37L38.3865 71.054C38.2065 71.162 38.0145 71.216 37.8105 71.216C37.5105 71.216 37.2525 71.102 37.0365 70.874C36.8325 70.646 36.7305 70.394 36.7305 70.118C36.7305 69.926 36.7785 69.746 36.8745 69.578C36.9825 69.41 37.1205 69.278 37.2885 69.182L40.0065 67.562C40.2105 67.454 40.4685 67.4 40.7805 67.4ZM50.1071 67.4C51.2351 67.4 52.2011 67.682 53.0051 68.246C53.8211 68.798 54.4391 69.554 54.8591 70.514C55.2911 71.462 55.5071 72.524 55.5071 73.7C55.5071 74.876 55.2911 75.944 54.8591 76.904C54.4391 77.852 53.8211 78.608 53.0051 79.172C52.2011 79.724 51.2351 80 50.1071 80H45.8051C45.4931 80 45.2291 79.898 45.0131 79.694C44.8091 79.478 44.7071 79.214 44.7071 78.902V68.498C44.7071 68.186 44.8091 67.928 45.0131 67.724C45.2291 67.508 45.4931 67.4 45.8051 67.4H50.1071ZM49.9271 77.93C51.0071 77.93 51.8171 77.534 52.3571 76.742C52.8971 75.938 53.1671 74.924 53.1671 73.7C53.1671 72.476 52.8911 71.468 52.3391 70.676C51.7991 69.872 50.9951 69.47 49.9271 69.47H46.9571V77.93H49.9271ZM64.7363 67.4C65.0483 67.4 65.3183 67.502 65.5463 67.706C65.7863 67.898 65.9063 68.15 65.9063 68.462C65.9063 68.618 65.8703 68.78 65.7983 68.948L61.0643 79.406C60.9803 79.622 60.8483 79.79 60.6683 79.91C60.4883 80.03 60.2903 80.09 60.0743 80.09C59.7743 80.09 59.5103 79.988 59.2823 79.784C59.0663 79.58 58.9583 79.334 58.9583 79.046C58.9583 78.878 58.9943 78.716 59.0663 78.56L63.2603 69.38H58.4723C58.1843 69.38 57.9443 69.284 57.7523 69.092C57.5603 68.9 57.4643 68.66 57.4643 68.372C57.4643 68.096 57.5603 67.868 57.7523 67.688C57.9443 67.496 58.1843 67.4 58.4723 67.4H64.7363ZM72.1203 72.008C72.7803 72.032 73.3623 72.224 73.8663 72.584C74.3823 72.944 74.7783 73.418 75.0543 74.006C75.3303 74.582 75.4683 75.2 75.4683 75.86C75.4683 76.736 75.2703 77.504 74.8743 78.164C74.4783 78.812 73.9203 79.31 73.2003 79.658C72.4803 80.006 71.6403 80.18 70.6803 80.18C70.2483 80.18 69.8163 80.126 69.3843 80.018C68.9523 79.91 68.5743 79.766 68.2503 79.586C67.8063 79.346 67.5843 79.022 67.5843 78.614C67.5843 78.326 67.6863 78.062 67.8903 77.822C68.0943 77.582 68.3403 77.462 68.6283 77.462C68.8683 77.462 69.1263 77.552 69.4023 77.732C69.9183 78.128 70.4883 78.326 71.1123 78.326C71.4843 78.326 71.8383 78.236 72.1743 78.056C72.5103 77.864 72.7803 77.594 72.9843 77.246C73.2003 76.886 73.3083 76.478 73.3083 76.022C73.3083 75.374 73.1103 74.87 72.7143 74.51C72.3303 74.15 71.8623 73.97 71.3103 73.97C71.0703 73.97 70.8603 73.994 70.6803 74.042C70.5003 74.09 70.3923 74.12 70.3563 74.132C70.0443 74.228 69.7863 74.276 69.5823 74.276C69.3183 74.276 69.1083 74.186 68.9523 74.006C68.7963 73.814 68.7183 73.58 68.7183 73.304C68.7183 73.136 68.7483 72.986 68.8083 72.854C68.8683 72.722 68.9703 72.578 69.1143 72.422L71.9043 69.38H68.3403C68.0523 69.38 67.8123 69.284 67.6203 69.092C67.4283 68.9 67.3323 68.66 67.3323 68.372C67.3323 68.096 67.4283 67.868 67.6203 67.688C67.8123 67.496 68.0523 67.4 68.3403 67.4H73.8483C74.2083 67.4 74.4843 67.502 74.6763 67.706C74.8683 67.898 74.9643 68.156 74.9643 68.48C74.9643 68.768 74.8203 69.056 74.5323 69.344L72.1203 72.008ZM79.9566 69.47V72.638H83.8446C84.1566 72.638 84.4146 72.74 84.6186 72.944C84.8346 73.136 84.9426 73.388 84.9426 73.7C84.9426 73.964 84.8346 74.198 84.6186 74.402C84.4146 74.606 84.1566 74.708 83.8446 74.708H79.9566V78.902C79.9566 79.214 79.8426 79.478 79.6146 79.694C79.3986 79.898 79.1406 80 78.8406 80C78.5046 80 78.2286 79.898 78.0126 79.694C77.8086 79.49 77.7066 79.226 77.7066 78.902V68.498C77.7066 68.186 77.8086 67.928 78.0126 67.724C78.2286 67.508 78.4926 67.4 78.8046 67.4H84.6546C84.9666 67.4 85.2246 67.502 85.4286 67.706C85.6446 67.898 85.7526 68.15 85.7526 68.462C85.7526 68.726 85.6446 68.96 85.4286 69.164C85.2246 69.368 84.9666 69.47 84.6546 69.47H79.9566ZM90.7641 67.4C91.0641 67.4 91.3161 67.508 91.5201 67.724C91.7241 67.928 91.8261 68.186 91.8261 68.498V78.902C91.8261 79.214 91.7121 79.478 91.4841 79.694C91.2561 79.898 90.9741 80 90.6381 80C90.3021 80 90.0261 79.898 89.8101 79.694C89.5941 79.478 89.4861 79.214 89.4861 78.902V70.37L88.3701 71.054C88.1901 71.162 87.9981 71.216 87.7941 71.216C87.4941 71.216 87.2361 71.102 87.0201 70.874C86.8161 70.646 86.7141 70.394 86.7141 70.118C86.7141 69.926 86.7621 69.746 86.8581 69.578C86.9661 69.41 87.1041 69.278 87.2721 69.182L89.9901 67.562C90.1941 67.454 90.4521 67.4 90.7641 67.4Z" fill="white"/>
<path d="M190.9 42.098L190.36 45.23H191.206C191.482 45.23 191.71 45.326 191.89 45.518C192.082 45.698 192.178 45.926 192.178 46.202C192.178 46.466 192.082 46.682 191.89 46.85C191.71 47.018 191.482 47.102 191.206 47.102H190.036L189.676 49.226C189.64 49.454 189.538 49.64 189.37 49.784C189.214 49.928 189.016 50 188.776 50C188.488 50 188.254 49.91 188.074 49.73C187.906 49.55 187.822 49.316 187.822 49.028C187.822 48.92 187.828 48.842 187.84 48.794L188.128 47.102H185.176L184.816 49.226C184.78 49.466 184.678 49.658 184.51 49.802C184.342 49.934 184.138 50 183.898 50C183.622 50 183.394 49.91 183.214 49.73C183.046 49.538 182.962 49.298 182.962 49.01C182.962 48.914 182.968 48.842 182.98 48.794L183.268 47.102H182.62C182.344 47.102 182.11 47.012 181.918 46.832C181.738 46.64 181.648 46.406 181.648 46.13C181.648 45.866 181.738 45.65 181.918 45.482C182.11 45.314 182.344 45.23 182.62 45.23H183.592L184.132 42.098H183.286C183.01 42.098 182.776 42.008 182.584 41.828C182.404 41.636 182.314 41.402 182.314 41.126C182.314 40.862 182.404 40.646 182.584 40.478C182.776 40.31 183.01 40.226 183.286 40.226H184.438L184.798 38.174C184.834 37.946 184.93 37.76 185.086 37.616C185.254 37.472 185.458 37.4 185.698 37.4C185.986 37.4 186.214 37.49 186.382 37.67C186.562 37.85 186.652 38.084 186.652 38.372C186.652 38.48 186.646 38.558 186.634 38.606L186.364 40.226H189.298L189.658 38.174C189.694 37.934 189.796 37.748 189.964 37.616C190.132 37.472 190.336 37.4 190.576 37.4C190.852 37.4 191.074 37.496 191.242 37.688C191.422 37.868 191.512 38.102 191.512 38.39C191.512 38.486 191.506 38.558 191.494 38.606L191.224 40.226H191.854C192.13 40.226 192.358 40.322 192.538 40.514C192.73 40.694 192.826 40.922 192.826 41.198C192.826 41.462 192.73 41.678 192.538 41.846C192.358 42.014 192.13 42.098 191.854 42.098H190.9ZM188.452 45.23L188.992 42.098H186.04L185.5 45.23H188.452ZM199.166 50.18C198.158 50.18 197.288 49.91 196.556 49.37C195.836 48.83 195.29 48.074 194.918 47.102C194.546 46.118 194.36 44.984 194.36 43.7C194.36 42.416 194.546 41.288 194.918 40.316C195.29 39.332 195.836 38.57 196.556 38.03C197.288 37.49 198.158 37.22 199.166 37.22C200.174 37.22 201.038 37.49 201.758 38.03C202.49 38.57 203.042 39.332 203.414 40.316C203.786 41.288 203.972 42.416 203.972 43.7C203.972 44.984 203.786 46.118 203.414 47.102C203.042 48.074 202.49 48.83 201.758 49.37C201.038 49.91 200.174 50.18 199.166 50.18ZM199.166 48.02C199.934 48.02 200.534 47.654 200.966 46.922C201.41 46.19 201.632 45.116 201.632 43.7C201.632 42.284 201.41 41.21 200.966 40.478C200.534 39.746 199.934 39.38 199.166 39.38C198.398 39.38 197.792 39.746 197.348 40.478C196.916 41.21 196.7 42.284 196.7 43.7C196.7 45.116 196.916 46.19 197.348 46.922C197.792 47.654 198.398 48.02 199.166 48.02ZM208.997 37.4C209.297 37.4 209.549 37.508 209.753 37.724C209.957 37.928 210.059 38.186 210.059 38.498V48.902C210.059 49.214 209.945 49.478 209.717 49.694C209.489 49.898 209.207 50 208.871 50C208.535 50 208.259 49.898 208.043 49.694C207.827 49.478 207.719 49.214 207.719 48.902V40.37L206.603 41.054C206.423 41.162 206.231 41.216 206.027 41.216C205.727 41.216 205.469 41.102 205.253 40.874C205.049 40.646 204.947 40.394 204.947 40.118C204.947 39.926 204.995 39.746 205.091 39.578C205.199 39.41 205.337 39.278 205.505 39.182L208.223 37.562C208.427 37.454 208.685 37.4 208.997 37.4ZM215.714 37.4C216.014 37.4 216.266 37.508 216.47 37.724C216.674 37.928 216.776 38.186 216.776 38.498V48.902C216.776 49.214 216.662 49.478 216.434 49.694C216.206 49.898 215.924 50 215.588 50C215.252 50 214.976 49.898 214.76 49.694C214.544 49.478 214.436 49.214 214.436 48.902V40.37L213.32 41.054C213.14 41.162 212.948 41.216 212.744 41.216C212.444 41.216 212.186 41.102 211.97 40.874C211.766 40.646 211.664 40.394 211.664 40.118C211.664 39.926 211.712 39.746 211.808 39.578C211.916 39.41 212.054 39.278 212.222 39.182L214.94 37.562C215.144 37.454 215.402 37.4 215.714 37.4ZM223.204 37.166C224.032 37.166 224.77 37.4 225.418 37.868C226.066 38.324 226.564 38.93 226.912 39.686C227.26 40.43 227.434 41.228 227.434 42.08C227.434 42.956 227.278 43.922 226.966 44.978C226.666 46.022 226.108 47.012 225.292 47.948C224.488 48.884 223.39 49.55 221.998 49.946C221.854 49.982 221.716 50 221.584 50C221.272 50 221.014 49.922 220.81 49.766C220.606 49.598 220.504 49.34 220.504 48.992C220.504 48.728 220.588 48.5 220.756 48.308C220.936 48.104 221.17 47.96 221.458 47.876C222.214 47.66 222.91 47.276 223.546 46.724C224.194 46.172 224.668 45.512 224.968 44.744C224.368 45.26 223.684 45.518 222.916 45.518C222.292 45.518 221.674 45.332 221.062 44.96C220.462 44.576 219.97 44.066 219.586 43.43C219.202 42.782 219.01 42.086 219.01 41.342C219.01 40.586 219.196 39.89 219.568 39.254C219.952 38.606 220.462 38.096 221.098 37.724C221.734 37.352 222.436 37.166 223.204 37.166ZM223.204 43.538C223.78 43.538 224.26 43.328 224.644 42.908C225.04 42.488 225.238 41.966 225.238 41.342C225.238 40.718 225.04 40.196 224.644 39.776C224.26 39.356 223.78 39.146 223.204 39.146C222.64 39.146 222.16 39.356 221.764 39.776C221.368 40.196 221.17 40.718 221.17 41.342C221.17 41.966 221.368 42.488 221.764 42.908C222.16 43.328 222.64 43.538 223.204 43.538ZM233.64 42.008C234.3 42.032 234.882 42.224 235.386 42.584C235.902 42.944 236.298 43.418 236.574 44.006C236.85 44.582 236.988 45.2 236.988 45.86C236.988 46.736 236.79 47.504 236.394 48.164C235.998 48.812 235.44 49.31 234.72 49.658C234 50.006 233.16 50.18 232.2 50.18C231.768 50.18 231.336 50.126 230.904 50.018C230.472 49.91 230.094 49.766 229.77 49.586C229.326 49.346 229.104 49.022 229.104 48.614C229.104 48.326 229.206 48.062 229.41 47.822C229.614 47.582 229.86 47.462 230.148 47.462C230.388 47.462 230.646 47.552 230.922 47.732C231.438 48.128 232.008 48.326 232.632 48.326C233.004 48.326 233.358 48.236 233.694 48.056C234.03 47.864 234.3 47.594 234.504 47.246C234.72 46.886 234.828 46.478 234.828 46.022C234.828 45.374 234.63 44.87 234.234 44.51C233.85 44.15 233.382 43.97 232.83 43.97C232.59 43.97 232.38 43.994 232.2 44.042C232.02 44.09 231.912 44.12 231.876 44.132C231.564 44.228 231.306 44.276 231.102 44.276C230.838 44.276 230.628 44.186 230.472 44.006C230.316 43.814 230.238 43.58 230.238 43.304C230.238 43.136 230.268 42.986 230.328 42.854C230.388 42.722 230.49 42.578 230.634 42.422L233.424 39.38H229.86C229.572 39.38 229.332 39.284 229.14 39.092C228.948 38.9 228.852 38.66 228.852 38.372C228.852 38.096 228.948 37.868 229.14 37.688C229.332 37.496 229.572 37.4 229.86 37.4H235.368C235.728 37.4 236.004 37.502 236.196 37.706C236.388 37.898 236.484 38.156 236.484 38.48C236.484 38.768 236.34 39.056 236.052 39.344L233.64 42.008ZM246.786 43.016C247.422 43.268 247.938 43.652 248.334 44.168C248.742 44.684 248.946 45.35 248.946 46.166C248.946 47.594 248.538 48.59 247.722 49.154C246.906 49.718 245.934 50 244.806 50H240.324C240.012 50 239.748 49.898 239.532 49.694C239.328 49.478 239.226 49.214 239.226 48.902V38.498C239.226 38.186 239.328 37.928 239.532 37.724C239.748 37.508 240.012 37.4 240.324 37.4H244.86C247.14 37.4 248.28 38.468 248.28 40.604C248.28 41.144 248.148 41.624 247.884 42.044C247.632 42.452 247.266 42.776 246.786 43.016ZM245.94 41C245.94 40.508 245.814 40.142 245.562 39.902C245.322 39.65 244.98 39.524 244.536 39.524H241.566V42.332H244.59C244.95 42.332 245.262 42.212 245.526 41.972C245.802 41.732 245.94 41.408 245.94 41ZM244.806 47.93C245.37 47.93 245.808 47.78 246.12 47.48C246.444 47.18 246.606 46.742 246.606 46.166C246.606 45.458 246.42 44.996 246.048 44.78C245.676 44.564 245.22 44.456 244.68 44.456H241.566V47.93H244.806Z" fill="white"/>
<path d="M343.9 42.098L343.36 45.23H344.206C344.482 45.23 344.71 45.326 344.89 45.518C345.082 45.698 345.178 45.926 345.178 46.202C345.178 46.466 345.082 46.682 344.89 46.85C344.71 47.018 344.482 47.102 344.206 47.102H343.036L342.676 49.226C342.64 49.454 342.538 49.64 342.37 49.784C342.214 49.928 342.016 50 341.776 50C341.488 50 341.254 49.91 341.074 49.73C340.906 49.55 340.822 49.316 340.822 49.028C340.822 48.92 340.828 48.842 340.84 48.794L341.128 47.102H338.176L337.816 49.226C337.78 49.466 337.678 49.658 337.51 49.802C337.342 49.934 337.138 50 336.898 50C336.622 50 336.394 49.91 336.214 49.73C336.046 49.538 335.962 49.298 335.962 49.01C335.962 48.914 335.968 48.842 335.98 48.794L336.268 47.102H335.62C335.344 47.102 335.11 47.012 334.918 46.832C334.738 46.64 334.648 46.406 334.648 46.13C334.648 45.866 334.738 45.65 334.918 45.482C335.11 45.314 335.344 45.23 335.62 45.23H336.592L337.132 42.098H336.286C336.01 42.098 335.776 42.008 335.584 41.828C335.404 41.636 335.314 41.402 335.314 41.126C335.314 40.862 335.404 40.646 335.584 40.478C335.776 40.31 336.01 40.226 336.286 40.226H337.438L337.798 38.174C337.834 37.946 337.93 37.76 338.086 37.616C338.254 37.472 338.458 37.4 338.698 37.4C338.986 37.4 339.214 37.49 339.382 37.67C339.562 37.85 339.652 38.084 339.652 38.372C339.652 38.48 339.646 38.558 339.634 38.606L339.364 40.226H342.298L342.658 38.174C342.694 37.934 342.796 37.748 342.964 37.616C343.132 37.472 343.336 37.4 343.576 37.4C343.852 37.4 344.074 37.496 344.242 37.688C344.422 37.868 344.512 38.102 344.512 38.39C344.512 38.486 344.506 38.558 344.494 38.606L344.224 40.226H344.854C345.13 40.226 345.358 40.322 345.538 40.514C345.73 40.694 345.826 40.922 345.826 41.198C345.826 41.462 345.73 41.678 345.538 41.846C345.358 42.014 345.13 42.098 344.854 42.098H343.9ZM341.452 45.23L341.992 42.098H339.04L338.5 45.23H341.452ZM352.166 50.18C351.158 50.18 350.288 49.91 349.556 49.37C348.836 48.83 348.29 48.074 347.918 47.102C347.546 46.118 347.36 44.984 347.36 43.7C347.36 42.416 347.546 41.288 347.918 40.316C348.29 39.332 348.836 38.57 349.556 38.03C350.288 37.49 351.158 37.22 352.166 37.22C353.174 37.22 354.038 37.49 354.758 38.03C355.49 38.57 356.042 39.332 356.414 40.316C356.786 41.288 356.972 42.416 356.972 43.7C356.972 44.984 356.786 46.118 356.414 47.102C356.042 48.074 355.49 48.83 354.758 49.37C354.038 49.91 353.174 50.18 352.166 50.18ZM352.166 48.02C352.934 48.02 353.534 47.654 353.966 46.922C354.41 46.19 354.632 45.116 354.632 43.7C354.632 42.284 354.41 41.21 353.966 40.478C353.534 39.746 352.934 39.38 352.166 39.38C351.398 39.38 350.792 39.746 350.348 40.478C349.916 41.21 349.7 42.284 349.7 43.7C349.7 45.116 349.916 46.19 350.348 46.922C350.792 47.654 351.398 48.02 352.166 48.02ZM361.997 37.4C362.297 37.4 362.549 37.508 362.753 37.724C362.957 37.928 363.059 38.186 363.059 38.498V48.902C363.059 49.214 362.945 49.478 362.717 49.694C362.489 49.898 362.207 50 361.871 50C361.535 50 361.259 49.898 361.043 49.694C360.827 49.478 360.719 49.214 360.719 48.902V40.37L359.603 41.054C359.423 41.162 359.231 41.216 359.027 41.216C358.727 41.216 358.469 41.102 358.253 40.874C358.049 40.646 357.947 40.394 357.947 40.118C357.947 39.926 357.995 39.746 358.091 39.578C358.199 39.41 358.337 39.278 358.505 39.182L361.223 37.562C361.427 37.454 361.685 37.4 361.997 37.4ZM368.714 37.4C369.014 37.4 369.266 37.508 369.47 37.724C369.674 37.928 369.776 38.186 369.776 38.498V48.902C369.776 49.214 369.662 49.478 369.434 49.694C369.206 49.898 368.924 50 368.588 50C368.252 50 367.976 49.898 367.76 49.694C367.544 49.478 367.436 49.214 367.436 48.902V40.37L366.32 41.054C366.14 41.162 365.948 41.216 365.744 41.216C365.444 41.216 365.186 41.102 364.97 40.874C364.766 40.646 364.664 40.394 364.664 40.118C364.664 39.926 364.712 39.746 364.808 39.578C364.916 39.41 365.054 39.278 365.222 39.182L367.94 37.562C368.144 37.454 368.402 37.4 368.714 37.4ZM376.204 37.166C377.032 37.166 377.77 37.4 378.418 37.868C379.066 38.324 379.564 38.93 379.912 39.686C380.26 40.43 380.434 41.228 380.434 42.08C380.434 42.956 380.278 43.922 379.966 44.978C379.666 46.022 379.108 47.012 378.292 47.948C377.488 48.884 376.39 49.55 374.998 49.946C374.854 49.982 374.716 50 374.584 50C374.272 50 374.014 49.922 373.81 49.766C373.606 49.598 373.504 49.34 373.504 48.992C373.504 48.728 373.588 48.5 373.756 48.308C373.936 48.104 374.17 47.96 374.458 47.876C375.214 47.66 375.91 47.276 376.546 46.724C377.194 46.172 377.668 45.512 377.968 44.744C377.368 45.26 376.684 45.518 375.916 45.518C375.292 45.518 374.674 45.332 374.062 44.96C373.462 44.576 372.97 44.066 372.586 43.43C372.202 42.782 372.01 42.086 372.01 41.342C372.01 40.586 372.196 39.89 372.568 39.254C372.952 38.606 373.462 38.096 374.098 37.724C374.734 37.352 375.436 37.166 376.204 37.166ZM376.204 43.538C376.78 43.538 377.26 43.328 377.644 42.908C378.04 42.488 378.238 41.966 378.238 41.342C378.238 40.718 378.04 40.196 377.644 39.776C377.26 39.356 376.78 39.146 376.204 39.146C375.64 39.146 375.16 39.356 374.764 39.776C374.368 40.196 374.17 40.718 374.17 41.342C374.17 41.966 374.368 42.488 374.764 42.908C375.16 43.328 375.64 43.538 376.204 43.538ZM386.64 42.008C387.3 42.032 387.882 42.224 388.386 42.584C388.902 42.944 389.298 43.418 389.574 44.006C389.85 44.582 389.988 45.2 389.988 45.86C389.988 46.736 389.79 47.504 389.394 48.164C388.998 48.812 388.44 49.31 387.72 49.658C387 50.006 386.16 50.18 385.2 50.18C384.768 50.18 384.336 50.126 383.904 50.018C383.472 49.91 383.094 49.766 382.77 49.586C382.326 49.346 382.104 49.022 382.104 48.614C382.104 48.326 382.206 48.062 382.41 47.822C382.614 47.582 382.86 47.462 383.148 47.462C383.388 47.462 383.646 47.552 383.922 47.732C384.438 48.128 385.008 48.326 385.632 48.326C386.004 48.326 386.358 48.236 386.694 48.056C387.03 47.864 387.3 47.594 387.504 47.246C387.72 46.886 387.828 46.478 387.828 46.022C387.828 45.374 387.63 44.87 387.234 44.51C386.85 44.15 386.382 43.97 385.83 43.97C385.59 43.97 385.38 43.994 385.2 44.042C385.02 44.09 384.912 44.12 384.876 44.132C384.564 44.228 384.306 44.276 384.102 44.276C383.838 44.276 383.628 44.186 383.472 44.006C383.316 43.814 383.238 43.58 383.238 43.304C383.238 43.136 383.268 42.986 383.328 42.854C383.388 42.722 383.49 42.578 383.634 42.422L386.424 39.38H382.86C382.572 39.38 382.332 39.284 382.14 39.092C381.948 38.9 381.852 38.66 381.852 38.372C381.852 38.096 381.948 37.868 382.14 37.688C382.332 37.496 382.572 37.4 382.86 37.4H388.368C388.728 37.4 389.004 37.502 389.196 37.706C389.388 37.898 389.484 38.156 389.484 38.48C389.484 38.768 389.34 39.056 389.052 39.344L386.64 42.008ZM399.786 43.016C400.422 43.268 400.938 43.652 401.334 44.168C401.742 44.684 401.946 45.35 401.946 46.166C401.946 47.594 401.538 48.59 400.722 49.154C399.906 49.718 398.934 50 397.806 50H393.324C393.012 50 392.748 49.898 392.532 49.694C392.328 49.478 392.226 49.214 392.226 48.902V38.498C392.226 38.186 392.328 37.928 392.532 37.724C392.748 37.508 393.012 37.4 393.324 37.4H397.86C400.14 37.4 401.28 38.468 401.28 40.604C401.28 41.144 401.148 41.624 400.884 42.044C400.632 42.452 400.266 42.776 399.786 43.016ZM398.94 41C398.94 40.508 398.814 40.142 398.562 39.902C398.322 39.65 397.98 39.524 397.536 39.524H394.566V42.332H397.59C397.95 42.332 398.262 42.212 398.526 41.972C398.802 41.732 398.94 41.408 398.94 41ZM397.806 47.93C398.37 47.93 398.808 47.78 399.12 47.48C399.444 47.18 399.606 46.742 399.606 46.166C399.606 45.458 399.42 44.996 399.048 44.78C398.676 44.564 398.22 44.456 397.68 44.456H394.566V47.93H397.806Z" fill="white"/>
<path d="M489.9 42.098L489.36 45.23H490.206C490.482 45.23 490.71 45.326 490.89 45.518C491.082 45.698 491.178 45.926 491.178 46.202C491.178 46.466 491.082 46.682 490.89 46.85C490.71 47.018 490.482 47.102 490.206 47.102H489.036L488.676 49.226C488.64 49.454 488.538 49.64 488.37 49.784C488.214 49.928 488.016 50 487.776 50C487.488 50 487.254 49.91 487.074 49.73C486.906 49.55 486.822 49.316 486.822 49.028C486.822 48.92 486.828 48.842 486.84 48.794L487.128 47.102H484.176L483.816 49.226C483.78 49.466 483.678 49.658 483.51 49.802C483.342 49.934 483.138 50 482.898 50C482.622 50 482.394 49.91 482.214 49.73C482.046 49.538 481.962 49.298 481.962 49.01C481.962 48.914 481.968 48.842 481.98 48.794L482.268 47.102H481.62C481.344 47.102 481.11 47.012 480.918 46.832C480.738 46.64 480.648 46.406 480.648 46.13C480.648 45.866 480.738 45.65 480.918 45.482C481.11 45.314 481.344 45.23 481.62 45.23H482.592L483.132 42.098H482.286C482.01 42.098 481.776 42.008 481.584 41.828C481.404 41.636 481.314 41.402 481.314 41.126C481.314 40.862 481.404 40.646 481.584 40.478C481.776 40.31 482.01 40.226 482.286 40.226H483.438L483.798 38.174C483.834 37.946 483.93 37.76 484.086 37.616C484.254 37.472 484.458 37.4 484.698 37.4C484.986 37.4 485.214 37.49 485.382 37.67C485.562 37.85 485.652 38.084 485.652 38.372C485.652 38.48 485.646 38.558 485.634 38.606L485.364 40.226H488.298L488.658 38.174C488.694 37.934 488.796 37.748 488.964 37.616C489.132 37.472 489.336 37.4 489.576 37.4C489.852 37.4 490.074 37.496 490.242 37.688C490.422 37.868 490.512 38.102 490.512 38.39C490.512 38.486 490.506 38.558 490.494 38.606L490.224 40.226H490.854C491.13 40.226 491.358 40.322 491.538 40.514C491.73 40.694 491.826 40.922 491.826 41.198C491.826 41.462 491.73 41.678 491.538 41.846C491.358 42.014 491.13 42.098 490.854 42.098H489.9ZM487.452 45.23L487.992 42.098H485.04L484.5 45.23H487.452ZM498.166 50.18C497.158 50.18 496.288 49.91 495.556 49.37C494.836 48.83 494.29 48.074 493.918 47.102C493.546 46.118 493.36 44.984 493.36 43.7C493.36 42.416 493.546 41.288 493.918 40.316C494.29 39.332 494.836 38.57 495.556 38.03C496.288 37.49 497.158 37.22 498.166 37.22C499.174 37.22 500.038 37.49 500.758 38.03C501.49 38.57 502.042 39.332 502.414 40.316C502.786 41.288 502.972 42.416 502.972 43.7C502.972 44.984 502.786 46.118 502.414 47.102C502.042 48.074 501.49 48.83 500.758 49.37C500.038 49.91 499.174 50.18 498.166 50.18ZM498.166 48.02C498.934 48.02 499.534 47.654 499.966 46.922C500.41 46.19 500.632 45.116 500.632 43.7C500.632 42.284 500.41 41.21 499.966 40.478C499.534 39.746 498.934 39.38 498.166 39.38C497.398 39.38 496.792 39.746 496.348 40.478C495.916 41.21 495.7 42.284 495.7 43.7C495.7 45.116 495.916 46.19 496.348 46.922C496.792 47.654 497.398 48.02 498.166 48.02ZM507.997 37.4C508.297 37.4 508.549 37.508 508.753 37.724C508.957 37.928 509.059 38.186 509.059 38.498V48.902C509.059 49.214 508.945 49.478 508.717 49.694C508.489 49.898 508.207 50 507.871 50C507.535 50 507.259 49.898 507.043 49.694C506.827 49.478 506.719 49.214 506.719 48.902V40.37L505.603 41.054C505.423 41.162 505.231 41.216 505.027 41.216C504.727 41.216 504.469 41.102 504.253 40.874C504.049 40.646 503.947 40.394 503.947 40.118C503.947 39.926 503.995 39.746 504.091 39.578C504.199 39.41 504.337 39.278 504.505 39.182L507.223 37.562C507.427 37.454 507.685 37.4 507.997 37.4ZM514.714 37.4C515.014 37.4 515.266 37.508 515.47 37.724C515.674 37.928 515.776 38.186 515.776 38.498V48.902C515.776 49.214 515.662 49.478 515.434 49.694C515.206 49.898 514.924 50 514.588 50C514.252 50 513.976 49.898 513.76 49.694C513.544 49.478 513.436 49.214 513.436 48.902V40.37L512.32 41.054C512.14 41.162 511.948 41.216 511.744 41.216C511.444 41.216 511.186 41.102 510.97 40.874C510.766 40.646 510.664 40.394 510.664 40.118C510.664 39.926 510.712 39.746 510.808 39.578C510.916 39.41 511.054 39.278 511.222 39.182L513.94 37.562C514.144 37.454 514.402 37.4 514.714 37.4ZM522.204 37.166C523.032 37.166 523.77 37.4 524.418 37.868C525.066 38.324 525.564 38.93 525.912 39.686C526.26 40.43 526.434 41.228 526.434 42.08C526.434 42.956 526.278 43.922 525.966 44.978C525.666 46.022 525.108 47.012 524.292 47.948C523.488 48.884 522.39 49.55 520.998 49.946C520.854 49.982 520.716 50 520.584 50C520.272 50 520.014 49.922 519.81 49.766C519.606 49.598 519.504 49.34 519.504 48.992C519.504 48.728 519.588 48.5 519.756 48.308C519.936 48.104 520.17 47.96 520.458 47.876C521.214 47.66 521.91 47.276 522.546 46.724C523.194 46.172 523.668 45.512 523.968 44.744C523.368 45.26 522.684 45.518 521.916 45.518C521.292 45.518 520.674 45.332 520.062 44.96C519.462 44.576 518.97 44.066 518.586 43.43C518.202 42.782 518.01 42.086 518.01 41.342C518.01 40.586 518.196 39.89 518.568 39.254C518.952 38.606 519.462 38.096 520.098 37.724C520.734 37.352 521.436 37.166 522.204 37.166ZM522.204 43.538C522.78 43.538 523.26 43.328 523.644 42.908C524.04 42.488 524.238 41.966 524.238 41.342C524.238 40.718 524.04 40.196 523.644 39.776C523.26 39.356 522.78 39.146 522.204 39.146C521.64 39.146 521.16 39.356 520.764 39.776C520.368 40.196 520.17 40.718 520.17 41.342C520.17 41.966 520.368 42.488 520.764 42.908C521.16 43.328 521.64 43.538 522.204 43.538ZM532.64 42.008C533.3 42.032 533.882 42.224 534.386 42.584C534.902 42.944 535.298 43.418 535.574 44.006C535.85 44.582 535.988 45.2 535.988 45.86C535.988 46.736 535.79 47.504 535.394 48.164C534.998 48.812 534.44 49.31 533.72 49.658C533 50.006 532.16 50.18 531.2 50.18C530.768 50.18 530.336 50.126 529.904 50.018C529.472 49.91 529.094 49.766 528.77 49.586C528.326 49.346 528.104 49.022 528.104 48.614C528.104 48.326 528.206 48.062 528.41 47.822C528.614 47.582 528.86 47.462 529.148 47.462C529.388 47.462 529.646 47.552 529.922 47.732C530.438 48.128 531.008 48.326 531.632 48.326C532.004 48.326 532.358 48.236 532.694 48.056C533.03 47.864 533.3 47.594 533.504 47.246C533.72 46.886 533.828 46.478 533.828 46.022C533.828 45.374 533.63 44.87 533.234 44.51C532.85 44.15 532.382 43.97 531.83 43.97C531.59 43.97 531.38 43.994 531.2 44.042C531.02 44.09 530.912 44.12 530.876 44.132C530.564 44.228 530.306 44.276 530.102 44.276C529.838 44.276 529.628 44.186 529.472 44.006C529.316 43.814 529.238 43.58 529.238 43.304C529.238 43.136 529.268 42.986 529.328 42.854C529.388 42.722 529.49 42.578 529.634 42.422L532.424 39.38H528.86C528.572 39.38 528.332 39.284 528.14 39.092C527.948 38.9 527.852 38.66 527.852 38.372C527.852 38.096 527.948 37.868 528.14 37.688C528.332 37.496 528.572 37.4 528.86 37.4H534.368C534.728 37.4 535.004 37.502 535.196 37.706C535.388 37.898 535.484 38.156 535.484 38.48C535.484 38.768 535.34 39.056 535.052 39.344L532.64 42.008ZM545.786 43.016C546.422 43.268 546.938 43.652 547.334 44.168C547.742 44.684 547.946 45.35 547.946 46.166C547.946 47.594 547.538 48.59 546.722 49.154C545.906 49.718 544.934 50 543.806 50H539.324C539.012 50 538.748 49.898 538.532 49.694C538.328 49.478 538.226 49.214 538.226 48.902V38.498C538.226 38.186 538.328 37.928 538.532 37.724C538.748 37.508 539.012 37.4 539.324 37.4H543.86C546.14 37.4 547.28 38.468 547.28 40.604C547.28 41.144 547.148 41.624 546.884 42.044C546.632 42.452 546.266 42.776 545.786 43.016ZM544.94 41C544.94 40.508 544.814 40.142 544.562 39.902C544.322 39.65 543.98 39.524 543.536 39.524H540.566V42.332H543.59C543.95 42.332 544.262 42.212 544.526 41.972C544.802 41.732 544.94 41.408 544.94 41ZM543.806 47.93C544.37 47.93 544.808 47.78 545.12 47.48C545.444 47.18 545.606 46.742 545.606 46.166C545.606 45.458 545.42 44.996 545.048 44.78C544.676 44.564 544.22 44.456 543.68 44.456H540.566V47.93H543.806Z" fill="white"/>
<path d="M646.9 42.098L646.36 45.23H647.206C647.482 45.23 647.71 45.326 647.89 45.518C648.082 45.698 648.178 45.926 648.178 46.202C648.178 46.466 648.082 46.682 647.89 46.85C647.71 47.018 647.482 47.102 647.206 47.102H646.036L645.676 49.226C645.64 49.454 645.538 49.64 645.37 49.784C645.214 49.928 645.016 50 644.776 50C644.488 50 644.254 49.91 644.074 49.73C643.906 49.55 643.822 49.316 643.822 49.028C643.822 48.92 643.828 48.842 643.84 48.794L644.128 47.102H641.176L640.816 49.226C640.78 49.466 640.678 49.658 640.51 49.802C640.342 49.934 640.138 50 639.898 50C639.622 50 639.394 49.91 639.214 49.73C639.046 49.538 638.962 49.298 638.962 49.01C638.962 48.914 638.968 48.842 638.98 48.794L639.268 47.102H638.62C638.344 47.102 638.11 47.012 637.918 46.832C637.738 46.64 637.648 46.406 637.648 46.13C637.648 45.866 637.738 45.65 637.918 45.482C638.11 45.314 638.344 45.23 638.62 45.23H639.592L640.132 42.098H639.286C639.01 42.098 638.776 42.008 638.584 41.828C638.404 41.636 638.314 41.402 638.314 41.126C638.314 40.862 638.404 40.646 638.584 40.478C638.776 40.31 639.01 40.226 639.286 40.226H640.438L640.798 38.174C640.834 37.946 640.93 37.76 641.086 37.616C641.254 37.472 641.458 37.4 641.698 37.4C641.986 37.4 642.214 37.49 642.382 37.67C642.562 37.85 642.652 38.084 642.652 38.372C642.652 38.48 642.646 38.558 642.634 38.606L642.364 40.226H645.298L645.658 38.174C645.694 37.934 645.796 37.748 645.964 37.616C646.132 37.472 646.336 37.4 646.576 37.4C646.852 37.4 647.074 37.496 647.242 37.688C647.422 37.868 647.512 38.102 647.512 38.39C647.512 38.486 647.506 38.558 647.494 38.606L647.224 40.226H647.854C648.13 40.226 648.358 40.322 648.538 40.514C648.73 40.694 648.826 40.922 648.826 41.198C648.826 41.462 648.73 41.678 648.538 41.846C648.358 42.014 648.13 42.098 647.854 42.098H646.9ZM644.452 45.23L644.992 42.098H642.04L641.5 45.23H644.452ZM655.166 50.18C654.158 50.18 653.288 49.91 652.556 49.37C651.836 48.83 651.29 48.074 650.918 47.102C650.546 46.118 650.36 44.984 650.36 43.7C650.36 42.416 650.546 41.288 650.918 40.316C651.29 39.332 651.836 38.57 652.556 38.03C653.288 37.49 654.158 37.22 655.166 37.22C656.174 37.22 657.038 37.49 657.758 38.03C658.49 38.57 659.042 39.332 659.414 40.316C659.786 41.288 659.972 42.416 659.972 43.7C659.972 44.984 659.786 46.118 659.414 47.102C659.042 48.074 658.49 48.83 657.758 49.37C657.038 49.91 656.174 50.18 655.166 50.18ZM655.166 48.02C655.934 48.02 656.534 47.654 656.966 46.922C657.41 46.19 657.632 45.116 657.632 43.7C657.632 42.284 657.41 41.21 656.966 40.478C656.534 39.746 655.934 39.38 655.166 39.38C654.398 39.38 653.792 39.746 653.348 40.478C652.916 41.21 652.7 42.284 652.7 43.7C652.7 45.116 652.916 46.19 653.348 46.922C653.792 47.654 654.398 48.02 655.166 48.02ZM664.997 37.4C665.297 37.4 665.549 37.508 665.753 37.724C665.957 37.928 666.059 38.186 666.059 38.498V48.902C666.059 49.214 665.945 49.478 665.717 49.694C665.489 49.898 665.207 50 664.871 50C664.535 50 664.259 49.898 664.043 49.694C663.827 49.478 663.719 49.214 663.719 48.902V40.37L662.603 41.054C662.423 41.162 662.231 41.216 662.027 41.216C661.727 41.216 661.469 41.102 661.253 40.874C661.049 40.646 660.947 40.394 660.947 40.118C660.947 39.926 660.995 39.746 661.091 39.578C661.199 39.41 661.337 39.278 661.505 39.182L664.223 37.562C664.427 37.454 664.685 37.4 664.997 37.4ZM671.714 37.4C672.014 37.4 672.266 37.508 672.47 37.724C672.674 37.928 672.776 38.186 672.776 38.498V48.902C672.776 49.214 672.662 49.478 672.434 49.694C672.206 49.898 671.924 50 671.588 50C671.252 50 670.976 49.898 670.76 49.694C670.544 49.478 670.436 49.214 670.436 48.902V40.37L669.32 41.054C669.14 41.162 668.948 41.216 668.744 41.216C668.444 41.216 668.186 41.102 667.97 40.874C667.766 40.646 667.664 40.394 667.664 40.118C667.664 39.926 667.712 39.746 667.808 39.578C667.916 39.41 668.054 39.278 668.222 39.182L670.94 37.562C671.144 37.454 671.402 37.4 671.714 37.4ZM679.204 37.166C680.032 37.166 680.77 37.4 681.418 37.868C682.066 38.324 682.564 38.93 682.912 39.686C683.26 40.43 683.434 41.228 683.434 42.08C683.434 42.956 683.278 43.922 682.966 44.978C682.666 46.022 682.108 47.012 681.292 47.948C680.488 48.884 679.39 49.55 677.998 49.946C677.854 49.982 677.716 50 677.584 50C677.272 50 677.014 49.922 676.81 49.766C676.606 49.598 676.504 49.34 676.504 48.992C676.504 48.728 676.588 48.5 676.756 48.308C676.936 48.104 677.17 47.96 677.458 47.876C678.214 47.66 678.91 47.276 679.546 46.724C680.194 46.172 680.668 45.512 680.968 44.744C680.368 45.26 679.684 45.518 678.916 45.518C678.292 45.518 677.674 45.332 677.062 44.96C676.462 44.576 675.97 44.066 675.586 43.43C675.202 42.782 675.01 42.086 675.01 41.342C675.01 40.586 675.196 39.89 675.568 39.254C675.952 38.606 676.462 38.096 677.098 37.724C677.734 37.352 678.436 37.166 679.204 37.166ZM679.204 43.538C679.78 43.538 680.26 43.328 680.644 42.908C681.04 42.488 681.238 41.966 681.238 41.342C681.238 40.718 681.04 40.196 680.644 39.776C680.26 39.356 679.78 39.146 679.204 39.146C678.64 39.146 678.16 39.356 677.764 39.776C677.368 40.196 677.17 40.718 677.17 41.342C677.17 41.966 677.368 42.488 677.764 42.908C678.16 43.328 678.64 43.538 679.204 43.538ZM689.64 42.008C690.3 42.032 690.882 42.224 691.386 42.584C691.902 42.944 692.298 43.418 692.574 44.006C692.85 44.582 692.988 45.2 692.988 45.86C692.988 46.736 692.79 47.504 692.394 48.164C691.998 48.812 691.44 49.31 690.72 49.658C690 50.006 689.16 50.18 688.2 50.18C687.768 50.18 687.336 50.126 686.904 50.018C686.472 49.91 686.094 49.766 685.77 49.586C685.326 49.346 685.104 49.022 685.104 48.614C685.104 48.326 685.206 48.062 685.41 47.822C685.614 47.582 685.86 47.462 686.148 47.462C686.388 47.462 686.646 47.552 686.922 47.732C687.438 48.128 688.008 48.326 688.632 48.326C689.004 48.326 689.358 48.236 689.694 48.056C690.03 47.864 690.3 47.594 690.504 47.246C690.72 46.886 690.828 46.478 690.828 46.022C690.828 45.374 690.63 44.87 690.234 44.51C689.85 44.15 689.382 43.97 688.83 43.97C688.59 43.97 688.38 43.994 688.2 44.042C688.02 44.09 687.912 44.12 687.876 44.132C687.564 44.228 687.306 44.276 687.102 44.276C686.838 44.276 686.628 44.186 686.472 44.006C686.316 43.814 686.238 43.58 686.238 43.304C686.238 43.136 686.268 42.986 686.328 42.854C686.388 42.722 686.49 42.578 686.634 42.422L689.424 39.38H685.86C685.572 39.38 685.332 39.284 685.14 39.092C684.948 38.9 684.852 38.66 684.852 38.372C684.852 38.096 684.948 37.868 685.14 37.688C685.332 37.496 685.572 37.4 685.86 37.4H691.368C691.728 37.4 692.004 37.502 692.196 37.706C692.388 37.898 692.484 38.156 692.484 38.48C692.484 38.768 692.34 39.056 692.052 39.344L689.64 42.008ZM702.786 43.016C703.422 43.268 703.938 43.652 704.334 44.168C704.742 44.684 704.946 45.35 704.946 46.166C704.946 47.594 704.538 48.59 703.722 49.154C702.906 49.718 701.934 50 700.806 50H696.324C696.012 50 695.748 49.898 695.532 49.694C695.328 49.478 695.226 49.214 695.226 48.902V38.498C695.226 38.186 695.328 37.928 695.532 37.724C695.748 37.508 696.012 37.4 696.324 37.4H700.86C703.14 37.4 704.28 38.468 704.28 40.604C704.28 41.144 704.148 41.624 703.884 42.044C703.632 42.452 703.266 42.776 702.786 43.016ZM701.94 41C701.94 40.508 701.814 40.142 701.562 39.902C701.322 39.65 700.98 39.524 700.536 39.524H697.566V42.332H700.59C700.95 42.332 701.262 42.212 701.526 41.972C701.802 41.732 701.94 41.408 701.94 41ZM700.806 47.93C701.37 47.93 701.808 47.78 702.12 47.48C702.444 47.18 702.606 46.742 702.606 46.166C702.606 45.458 702.42 44.996 702.048 44.78C701.676 44.564 701.22 44.456 700.68 44.456H697.566V47.93H700.806Z" fill="white"/>
<defs>
<linearGradient id="paint0_linear" x1="76.5" y1="0" x2="76.5" y2="157" gradientUnits="userSpaceOnUse">
<stop stop-color="#01193B"/>
<stop offset="1" stop-color="#1D73F1"/>
</linearGradient>
</defs>
</svg>
