<svg xmlns="http://www.w3.org/2000/svg" xmlns:xlink="http://www.w3.org/1999/xlink" viewBox="0 0 50 50">
  <defs>
    <style>
      .cls-1 {
        clip-path: url(#clip-github);
      }

      .cls-2 {
        fill: #fff;
        fill-rule: evenodd;
      }
    </style>
    <clipPath id="clip-github">
      <rect width="50" height="50"/>
    </clipPath>
  </defs>
  <g id="github" class="cls-1">
    <path id="Path_6" data-name="Path 6" class="cls-2" d="M19.455,0A19.459,19.459,0,0,0,13.3,37.919c.967.179,1.326-.418,1.326-.943,0-.466-.012-1.684-.024-3.308-5.41,1.17-6.557-2.6-6.557-2.6a5.2,5.2,0,0,0-2.162-2.854c-1.768-1.206.131-1.182.131-1.182A4.134,4.134,0,0,1,9,29.033a4.134,4.134,0,0,0,5.661,1.612,4.228,4.228,0,0,1,1.23-2.6c-4.311-.478-8.85-2.15-8.85-9.6a7.476,7.476,0,0,1,2.006-5.219,7,7,0,0,1,.179-5.147s1.636-.525,5.35,1.994a18.4,18.4,0,0,1,9.745,0c3.714-2.52,5.35-1.994,5.35-1.994a6.954,6.954,0,0,1,.191,5.147,7.521,7.521,0,0,1,1.994,5.219c0,7.476-4.55,9.112-8.886,9.6A4.668,4.668,0,0,1,24.3,31.649c0,2.6-.024,4.694-.024,5.338,0,.525.346,1.123,1.338.932A19.461,19.461,0,0,0,19.455,0Z" transform="translate(6 6)"/>
  </g>
</svg>
