<svg xmlns="http://www.w3.org/2000/svg" xmlns:xlink="http://www.w3.org/1999/xlink" viewBox="0 0 50 50">
  <defs>
    <style>
      .cls-1 {
        clip-path: url(#clip-path);
      }

      .cls-2 {
        fill: #fff;
      }
    </style>
    <clipPath id="clip-path">
      <rect id="Rectangle_143" data-name="Rectangle 143" width="50" height="50"/>
    </clipPath>
  </defs>
  <g id="linkedin" class="cls-1">
    <g id="linkedin-2" data-name="linkedin" class="cls-1">
      <g id="Group_41" data-name="Group 41" transform="translate(6 6)">
        <g id="Group_40" data-name="Group 40">
          <path id="Path_33" data-name="Path 33" class="cls-2" d="M0,19.46A19.455,19.455,0,1,1,19.45,38.92,19.455,19.455,0,0,1,0,19.46Z"/>
        </g>
        <path id="Path_34" data-name="Path 34" d="M13.88,16.84H16.7v9.07H13.88Zm1.42-4.51a1.63,1.63,0,1,1-1.159.474A1.63,1.63,0,0,1,15.3,12.33"/>
        <path id="Path_35" data-name="Path 35" d="M18.48,16.84h2.7v1.24h.04a2.982,2.982,0,0,1,2.67-1.47c2.85,0,3.38,1.88,3.38,4.32V25.9H24.45V21.5c0-1.05-.02-2.4-1.47-2.4-1.47,0-1.69,1.14-1.69,2.33v4.49H18.47V16.84Z"/>
      </g>
    </g>
  </g>
</svg>
