<svg width="102" height="102" viewBox="0 0 102 102" fill="none" xmlns="http://www.w3.org/2000/svg">
<circle cx="51" cy="51" r="51" transform="rotate(90 51 51)" fill="url(#paint0_linear)"/>
<path d="M54.576 48.624C56.656 49.168 58.224 50.144 59.28 51.552C60.368 52.96 60.912 54.736 60.912 56.88C60.912 59.792 59.952 62.096 58.032 63.792C56.112 65.488 53.504 66.336 50.208 66.336C48.128 66.336 46.128 65.968 44.208 65.232C42.288 64.496 40.704 63.504 39.456 62.256C39.04 61.872 38.832 61.408 38.832 60.864C38.832 60.512 38.928 60.208 39.12 59.952C39.312 59.696 39.536 59.568 39.792 59.568C40.176 59.568 40.544 59.728 40.896 60.048C42.4 61.36 43.888 62.304 45.36 62.88C46.864 63.456 48.48 63.744 50.208 63.744C52.672 63.744 54.576 63.152 55.92 61.968C57.264 60.784 57.936 59.088 57.936 56.88C57.936 52.368 55.152 50.112 49.584 50.112H47.136C46.72 50.112 46.384 49.984 46.128 49.728C45.872 49.472 45.744 49.168 45.744 48.816C45.744 48.464 45.856 48.16 46.08 47.904C46.336 47.648 46.688 47.52 47.136 47.52H48.864C51.52 47.52 53.568 46.912 55.008 45.696C56.48 44.448 57.216 42.688 57.216 40.416C57.216 38.496 56.624 37.008 55.44 35.952C54.288 34.896 52.656 34.368 50.544 34.368C48.912 34.368 47.36 34.672 45.888 35.28C44.448 35.856 42.96 36.784 41.424 38.064C41.072 38.384 40.704 38.544 40.32 38.544C40.064 38.544 39.84 38.416 39.648 38.16C39.456 37.904 39.36 37.6 39.36 37.248C39.36 36.704 39.568 36.24 39.984 35.856C41.232 34.608 42.8 33.616 44.688 32.88C46.576 32.144 48.528 31.776 50.544 31.776C53.488 31.776 55.824 32.544 57.552 34.08C59.312 35.584 60.192 37.648 60.192 40.272C60.192 42.256 59.696 44 58.704 45.504C57.712 46.976 56.336 48.016 54.576 48.624Z" fill="white"/>
<defs>
<linearGradient id="paint0_linear" x1="51" y1="-3.8147e-06" x2="51" y2="102" gradientUnits="userSpaceOnUse">
<stop stop-color="#4722A4"/>
<stop offset="1" stop-color="#6E35FF" stop-opacity="0.62"/>
</linearGradient>
</defs>
</svg>
