<svg width="305" height="263" viewBox="0 0 305 263" fill="none" xmlns="http://www.w3.org/2000/svg">
<rect width="305" height="263" fill="white"/>
<path d="M62 77.0189C62 58.783 76.7339 44 94.9091 44H210.091C228.266 44 243 58.7831 243 77.0189V185.981C243 204.217 228.266 219 210.091 219H94.9091C76.7339 219 62 204.217 62 185.981V77.0189Z" fill="#4722A4"/>
<path d="M175.744 156.376V163H132.16V157.048L155.872 130.936C159.072 127.352 161.376 124.152 162.784 121.336C164.256 118.456 164.992 115.576 164.992 112.696C164.992 108.984 163.904 106.136 161.728 104.152C159.552 102.168 156.48 101.176 152.512 101.176C145.984 101.176 139.584 103.768 133.312 108.952L130.336 102.904C133.024 100.344 136.384 98.328 140.416 96.856C144.512 95.32 148.608 94.552 152.704 94.552C158.912 94.552 163.808 96.152 167.392 99.352C171.04 102.552 172.864 106.872 172.864 112.312C172.864 116.216 171.968 119.96 170.176 123.544C168.448 127.128 165.568 131.128 161.536 135.544L142.336 156.376H175.744Z" fill="white"/>
</svg>
