<svg width="102" height="102" viewBox="0 0 102 102" fill="none" xmlns="http://www.w3.org/2000/svg">
<circle cx="51" cy="51" r="51" transform="rotate(90 51 51)" fill="url(#paint0_linear)"/>
<path d="M60.576 63.408C60.992 63.408 61.328 63.536 61.584 63.792C61.84 64.016 61.968 64.32 61.968 64.704C61.968 65.568 61.504 66 60.576 66H41.472C41.024 66 40.672 65.872 40.416 65.616C40.16 65.36 40.032 65.056 40.032 64.704C40.032 64.256 40.192 63.872 40.512 63.552L52.368 50.352C54.064 48.4 55.296 46.672 56.064 45.168C56.832 43.664 57.216 42.16 57.216 40.656C57.216 38.64 56.624 37.088 55.44 36C54.288 34.912 52.656 34.368 50.544 34.368C48.912 34.368 47.36 34.672 45.888 35.28C44.448 35.856 42.96 36.784 41.424 38.064C41.072 38.384 40.704 38.544 40.32 38.544C40.064 38.544 39.84 38.416 39.648 38.16C39.456 37.904 39.36 37.6 39.36 37.248C39.36 36.704 39.568 36.24 39.984 35.856C41.264 34.608 42.848 33.616 44.736 32.88C46.624 32.144 48.56 31.776 50.544 31.776C53.52 31.776 55.872 32.56 57.6 34.128C59.328 35.664 60.192 37.792 60.192 40.512C60.192 42.464 59.744 44.352 58.848 46.176C57.952 48 56.48 50.048 54.432 52.32L44.304 63.408H60.576Z" fill="white"/>
<defs>
<linearGradient id="paint0_linear" x1="51" y1="-3.8147e-06" x2="51" y2="102" gradientUnits="userSpaceOnUse">
<stop stop-color="#4722A4"/>
<stop offset="1" stop-color="#6E35FF" stop-opacity="0.62"/>
</linearGradient>
</defs>
</svg>
