<svg width="1130" height="461" viewBox="0 0 1130 461" fill="none" xmlns="http://www.w3.org/2000/svg">
<rect width="1130" height="461" fill="white"/>
<path fill-rule="evenodd" clip-rule="evenodd" d="M669.075 321.466L716.739 242.636L669.075 165.5L562.664 165.5L515 242.636L562.664 321.466H669.075Z" fill="white"/>
<path d="M551.976 259.384C549.576 259.384 547.272 259.032 545.064 258.328C542.888 257.592 541.144 256.616 539.832 255.4C539.352 254.952 539.112 254.392 539.112 253.72C539.112 253.272 539.24 252.888 539.496 252.568C539.752 252.216 540.056 252.04 540.408 252.04C540.824 252.04 541.272 252.216 541.752 252.568C544.728 254.872 548.12 256.024 551.928 256.024C554.68 256.024 556.792 255.496 558.264 254.44C559.736 253.384 560.472 251.88 560.472 249.928C560.472 248.808 560.12 247.912 559.416 247.24C558.712 246.536 557.784 245.976 556.632 245.56C555.48 245.144 553.928 244.712 551.976 244.264C549.352 243.656 547.192 243.016 545.496 242.344C543.832 241.672 542.472 240.712 541.416 239.464C540.392 238.216 539.88 236.584 539.88 234.568C539.88 232.648 540.392 230.952 541.416 229.48C542.472 227.976 543.928 226.824 545.784 226.024C547.672 225.192 549.816 224.776 552.216 224.776C554.456 224.776 556.536 225.128 558.456 225.832C560.408 226.504 562.04 227.48 563.352 228.76C563.864 229.272 564.12 229.832 564.12 230.44C564.12 230.888 563.992 231.288 563.736 231.64C563.48 231.96 563.176 232.12 562.824 232.12C562.472 232.12 562.008 231.944 561.432 231.592C559.864 230.312 558.408 229.416 557.064 228.904C555.72 228.392 554.104 228.136 552.216 228.136C549.56 228.136 547.496 228.696 546.024 229.816C544.552 230.904 543.816 232.44 543.816 234.424C543.816 236.12 544.456 237.4 545.736 238.264C547.048 239.096 549.048 239.832 551.736 240.472C554.648 241.176 556.936 241.832 558.6 242.44C560.264 243.016 561.64 243.896 562.728 245.08C563.848 246.264 564.408 247.848 564.408 249.832C564.408 251.72 563.88 253.384 562.824 254.824C561.8 256.264 560.344 257.384 558.456 258.184C556.568 258.984 554.408 259.384 551.976 259.384ZM572.193 259.24C571.617 259.24 571.137 259.08 570.753 258.76C570.401 258.408 570.225 257.928 570.225 257.32V237.064C570.225 236.456 570.401 235.992 570.753 235.672C571.137 235.32 571.617 235.144 572.193 235.144C572.769 235.144 573.233 235.32 573.585 235.672C573.937 235.992 574.113 236.456 574.113 237.064V257.32C574.113 257.96 573.937 258.44 573.585 258.76C573.233 259.08 572.769 259.24 572.193 259.24ZM572.193 230.104C571.425 230.104 570.801 229.88 570.321 229.432C569.841 228.984 569.601 228.392 569.601 227.656C569.601 226.952 569.841 226.376 570.321 225.928C570.801 225.48 571.425 225.256 572.193 225.256C572.961 225.256 573.585 225.48 574.065 225.928C574.545 226.376 574.785 226.952 574.785 227.656C574.785 228.392 574.545 228.984 574.065 229.432C573.585 229.88 572.961 230.104 572.193 230.104ZM612.005 224.92C612.613 224.92 613.077 225.112 613.397 225.496C613.749 225.848 613.925 226.328 613.925 226.936V257.32C613.925 257.896 613.765 258.36 613.445 258.712C613.125 259.064 612.677 259.24 612.101 259.24C611.525 259.24 611.093 259.064 610.805 258.712C610.517 258.36 610.373 257.896 610.373 257.32V232.792L599.957 252.76C599.509 253.688 598.853 254.152 597.989 254.152C597.157 254.152 596.501 253.688 596.021 252.76L585.557 233.032V257.32C585.557 257.896 585.397 258.36 585.077 258.712C584.789 259.064 584.357 259.24 583.781 259.24C583.205 259.24 582.757 259.064 582.437 258.712C582.117 258.36 581.957 257.896 581.957 257.32V226.936C581.957 226.328 582.133 225.848 582.485 225.496C582.837 225.112 583.317 224.92 583.925 224.92C584.725 224.92 585.365 225.384 585.845 226.312L598.037 249.688L610.085 226.312C610.341 225.8 610.613 225.448 610.901 225.256C611.221 225.032 611.589 224.92 612.005 224.92ZM652.365 224.92C652.973 224.92 653.437 225.112 653.757 225.496C654.109 225.848 654.285 226.328 654.285 226.936V257.32C654.285 257.896 654.125 258.36 653.805 258.712C653.485 259.064 653.037 259.24 652.461 259.24C651.885 259.24 651.453 259.064 651.165 258.712C650.877 258.36 650.733 257.896 650.733 257.32V232.792L640.317 252.76C639.869 253.688 639.213 254.152 638.349 254.152C637.517 254.152 636.861 253.688 636.381 252.76L625.917 233.032V257.32C625.917 257.896 625.757 258.36 625.437 258.712C625.149 259.064 624.717 259.24 624.141 259.24C623.565 259.24 623.117 259.064 622.797 258.712C622.477 258.36 622.317 257.896 622.317 257.32V226.936C622.317 226.328 622.493 225.848 622.845 225.496C623.197 225.112 623.677 224.92 624.285 224.92C625.085 224.92 625.725 225.384 626.205 226.312L638.397 249.688L650.445 226.312C650.701 225.8 650.973 225.448 651.261 225.256C651.581 225.032 651.949 224.92 652.365 224.92ZM691.812 256.744C691.94 257 692.004 257.272 692.004 257.56C692.004 258.04 691.812 258.44 691.428 258.76C691.076 259.08 690.644 259.24 690.132 259.24C689.332 259.24 688.772 258.856 688.452 258.088L685.044 250.312H666.948L663.492 258.088C663.172 258.856 662.612 259.24 661.812 259.24C661.3 259.24 660.852 259.08 660.468 258.76C660.084 258.408 659.892 257.992 659.892 257.512C659.892 257.256 659.956 257 660.084 256.744L673.812 226.216C674.004 225.768 674.292 225.432 674.676 225.208C675.06 224.984 675.476 224.872 675.924 224.872C676.404 224.872 676.836 225 677.22 225.256C677.604 225.48 677.892 225.8 678.084 226.216L691.812 256.744ZM683.604 247.048L675.972 229.816L668.388 247.048H683.604Z" fill="#4722A4"/>
<path d="M63.264 63.192C61.664 63.192 60.28 62.848 59.112 62.16C57.944 61.456 57.04 60.456 56.4 59.16C55.776 57.848 55.464 56.304 55.464 54.528C55.464 52.768 55.776 51.24 56.4 49.944C57.04 48.632 57.944 47.632 59.112 46.944C60.28 46.24 61.664 45.888 63.264 45.888C64.336 45.888 65.344 46.064 66.288 46.416C67.248 46.752 68.08 47.24 68.784 47.88C69.04 48.12 69.168 48.4 69.168 48.72C69.168 48.944 69.104 49.144 68.976 49.32C68.848 49.48 68.696 49.56 68.52 49.56C68.328 49.56 68.096 49.472 67.824 49.296C67.008 48.656 66.264 48.208 65.592 47.952C64.936 47.696 64.176 47.568 63.312 47.568C61.456 47.568 60.024 48.176 59.016 49.392C58.024 50.592 57.528 52.304 57.528 54.528C57.528 56.768 58.024 58.496 59.016 59.712C60.024 60.912 61.456 61.512 63.312 61.512C64.16 61.512 64.92 61.384 65.592 61.128C66.264 60.872 67.008 60.424 67.824 59.784C68.096 59.608 68.328 59.52 68.52 59.52C68.696 59.52 68.848 59.6 68.976 59.76C69.104 59.92 69.168 60.12 69.168 60.36C69.168 60.68 69.04 60.96 68.784 61.2C68.08 61.84 67.248 62.336 66.288 62.688C65.344 63.024 64.336 63.192 63.264 63.192ZM79.1524 63.192C77.5844 63.192 76.2164 62.84 75.0484 62.136C73.8964 61.432 73.0084 60.432 72.3844 59.136C71.7604 57.84 71.4484 56.312 71.4484 54.552C71.4484 52.776 71.7524 51.24 72.3604 49.944C72.9844 48.632 73.8724 47.632 75.0244 46.944C76.1924 46.24 77.5684 45.888 79.1524 45.888C80.7364 45.888 82.1044 46.24 83.2564 46.944C84.4244 47.632 85.3124 48.632 85.9204 49.944C86.5444 51.24 86.8564 52.768 86.8564 54.528C86.8564 56.288 86.5444 57.824 85.9204 59.136C85.2964 60.432 84.4004 61.432 83.2324 62.136C82.0804 62.84 80.7204 63.192 79.1524 63.192ZM79.1524 61.512C80.9444 61.512 82.3364 60.912 83.3284 59.712C84.3364 58.496 84.8404 56.768 84.8404 54.528C84.8404 52.288 84.3444 50.568 83.3524 49.368C82.3604 48.168 80.9604 47.568 79.1524 47.568C77.3604 47.568 75.9604 48.176 74.9524 49.392C73.9604 50.592 73.4644 52.304 73.4644 54.528C73.4644 56.752 73.9604 58.472 74.9524 59.688C75.9604 60.904 77.3604 61.512 79.1524 61.512ZM91.3605 63C91.0885 63 90.8565 62.92 90.6645 62.76C90.4885 62.584 90.4005 62.36 90.4005 62.088V46.968C90.4005 46.664 90.4885 46.424 90.6645 46.248C90.8405 46.056 91.0805 45.96 91.3845 45.96C91.6885 45.96 91.9285 46.056 92.1045 46.248C92.2805 46.424 92.3685 46.664 92.3685 46.968V61.32H100.121C100.409 61.32 100.633 61.392 100.793 61.536C100.953 61.68 101.033 61.888 101.033 62.16C101.033 62.432 100.953 62.64 100.793 62.784C100.633 62.928 100.409 63 100.121 63H91.3605ZM109.574 63.192C108.006 63.192 106.638 62.84 105.47 62.136C104.318 61.432 103.43 60.432 102.806 59.136C102.182 57.84 101.87 56.312 101.87 54.552C101.87 52.776 102.174 51.24 102.782 49.944C103.406 48.632 104.294 47.632 105.446 46.944C106.614 46.24 107.99 45.888 109.574 45.888C111.158 45.888 112.526 46.24 113.678 46.944C114.846 47.632 115.734 48.632 116.342 49.944C116.966 51.24 117.278 52.768 117.278 54.528C117.278 56.288 116.966 57.824 116.342 59.136C115.718 60.432 114.822 61.432 113.654 62.136C112.502 62.84 111.142 63.192 109.574 63.192ZM109.574 61.512C111.366 61.512 112.758 60.912 113.75 59.712C114.758 58.496 115.262 56.768 115.262 54.528C115.262 52.288 114.766 50.568 113.774 49.368C112.782 48.168 111.382 47.568 109.574 47.568C107.782 47.568 106.382 48.176 105.374 49.392C104.382 50.592 103.886 52.304 103.886 54.528C103.886 56.752 104.382 58.472 105.374 59.688C106.382 60.904 107.782 61.512 109.574 61.512ZM133.734 61.776C133.846 61.952 133.902 62.136 133.902 62.328C133.902 62.568 133.806 62.768 133.614 62.928C133.438 63.072 133.23 63.144 132.99 63.144C132.622 63.144 132.334 62.984 132.126 62.664L128.91 57.576C128.494 56.92 128.062 56.472 127.614 56.232C127.166 55.976 126.558 55.848 125.79 55.848H122.766V62.112C122.766 62.416 122.678 62.664 122.502 62.856C122.326 63.032 122.094 63.12 121.806 63.12C121.502 63.12 121.262 63.032 121.086 62.856C120.91 62.664 120.822 62.416 120.822 62.112V47.04C120.822 46.752 120.91 46.52 121.086 46.344C121.278 46.168 121.526 46.08 121.83 46.08H127.782C129.622 46.08 131.022 46.488 131.982 47.304C132.958 48.12 133.446 49.32 133.446 50.904C133.446 52.248 133.054 53.328 132.27 54.144C131.502 54.96 130.398 55.456 128.958 55.632C129.358 55.76 129.718 55.968 130.038 56.256C130.358 56.544 130.678 56.944 130.998 57.456L133.734 61.776ZM127.614 54.216C128.926 54.216 129.902 53.944 130.542 53.4C131.198 52.856 131.526 52.032 131.526 50.928C131.526 49.84 131.206 49.032 130.566 48.504C129.926 47.976 128.942 47.712 127.614 47.712H122.766V54.216H127.614ZM142.652 63.192C141.452 63.192 140.3 63.016 139.196 62.664C138.108 62.296 137.236 61.808 136.58 61.2C136.34 60.976 136.22 60.696 136.22 60.36C136.22 60.136 136.284 59.944 136.412 59.784C136.54 59.608 136.692 59.52 136.868 59.52C137.076 59.52 137.3 59.608 137.54 59.784C139.028 60.936 140.724 61.512 142.628 61.512C144.004 61.512 145.06 61.248 145.796 60.72C146.532 60.192 146.9 59.44 146.9 58.464C146.9 57.904 146.724 57.456 146.372 57.12C146.02 56.768 145.556 56.488 144.98 56.28C144.404 56.072 143.628 55.856 142.652 55.632C141.34 55.328 140.26 55.008 139.412 54.672C138.58 54.336 137.9 53.856 137.372 53.232C136.86 52.608 136.604 51.792 136.604 50.784C136.604 49.824 136.86 48.976 137.372 48.24C137.9 47.488 138.628 46.912 139.556 46.512C140.5 46.096 141.572 45.888 142.772 45.888C143.892 45.888 144.932 46.064 145.892 46.416C146.868 46.752 147.684 47.24 148.34 47.88C148.596 48.136 148.724 48.416 148.724 48.72C148.724 48.944 148.66 49.144 148.532 49.32C148.404 49.48 148.252 49.56 148.076 49.56C147.9 49.56 147.668 49.472 147.38 49.296C146.596 48.656 145.868 48.208 145.196 47.952C144.524 47.696 143.716 47.568 142.772 47.568C141.444 47.568 140.412 47.848 139.676 48.408C138.94 48.952 138.572 49.72 138.572 50.712C138.572 51.56 138.892 52.2 139.532 52.632C140.188 53.048 141.188 53.416 142.532 53.736C143.988 54.088 145.132 54.416 145.964 54.72C146.796 55.008 147.484 55.448 148.028 56.04C148.588 56.632 148.868 57.424 148.868 58.416C148.868 59.36 148.604 60.192 148.076 60.912C147.564 61.632 146.836 62.192 145.892 62.592C144.948 62.992 143.868 63.192 142.652 63.192Z" fill="#4722A4"/>
<path d="M480.048 63C479.776 63 479.544 62.92 479.352 62.76C479.176 62.584 479.088 62.36 479.088 62.088V46.968C479.088 46.664 479.176 46.424 479.352 46.248C479.528 46.056 479.768 45.96 480.072 45.96C480.376 45.96 480.616 46.056 480.792 46.248C480.968 46.424 481.056 46.664 481.056 46.968V61.32H488.808C489.096 61.32 489.32 61.392 489.48 61.536C489.64 61.68 489.72 61.888 489.72 62.16C489.72 62.432 489.64 62.64 489.48 62.784C489.32 62.928 489.096 63 488.808 63H480.048ZM498.262 63.192C496.694 63.192 495.326 62.84 494.158 62.136C493.006 61.432 492.118 60.432 491.494 59.136C490.87 57.84 490.558 56.312 490.558 54.552C490.558 52.776 490.862 51.24 491.47 49.944C492.094 48.632 492.982 47.632 494.134 46.944C495.302 46.24 496.678 45.888 498.262 45.888C499.846 45.888 501.214 46.24 502.366 46.944C503.534 47.632 504.422 48.632 505.03 49.944C505.654 51.24 505.966 52.768 505.966 54.528C505.966 56.288 505.654 57.824 505.03 59.136C504.406 60.432 503.51 61.432 502.342 62.136C501.19 62.84 499.83 63.192 498.262 63.192ZM498.262 61.512C500.054 61.512 501.446 60.912 502.438 59.712C503.446 58.496 503.95 56.768 503.95 54.528C503.95 52.288 503.454 50.568 502.462 49.368C501.47 48.168 500.07 47.568 498.262 47.568C496.47 47.568 495.07 48.176 494.062 49.392C493.07 50.592 492.574 52.304 492.574 54.528C492.574 56.752 493.07 58.472 494.062 59.688C495.07 60.904 496.47 61.512 498.262 61.512ZM522.086 54.192C522.326 54.192 522.518 54.264 522.662 54.408C522.822 54.552 522.902 54.752 522.902 55.008V60.984C522.902 61.368 522.838 61.656 522.71 61.848C522.598 62.04 522.382 62.192 522.062 62.304C521.422 62.576 520.646 62.792 519.734 62.952C518.822 63.112 517.91 63.192 516.998 63.192C515.318 63.192 513.87 62.848 512.654 62.16C511.438 61.472 510.502 60.48 509.846 59.184C509.206 57.888 508.886 56.336 508.886 54.528C508.886 52.752 509.206 51.216 509.846 49.92C510.486 48.624 511.406 47.632 512.606 46.944C513.806 46.24 515.214 45.888 516.83 45.888C517.95 45.888 518.99 46.064 519.95 46.416C520.91 46.752 521.718 47.24 522.374 47.88C522.646 48.152 522.782 48.432 522.782 48.72C522.782 48.944 522.718 49.144 522.59 49.32C522.462 49.48 522.302 49.56 522.11 49.56C521.918 49.56 521.694 49.464 521.438 49.272C520.606 48.632 519.854 48.192 519.182 47.952C518.51 47.696 517.734 47.568 516.854 47.568C514.95 47.568 513.486 48.168 512.462 49.368C511.454 50.568 510.95 52.288 510.95 54.528C510.95 56.816 511.462 58.56 512.486 59.76C513.526 60.944 515.046 61.536 517.046 61.536C518.534 61.536 519.886 61.312 521.102 60.864V55.728H517.598C517.326 55.728 517.11 55.656 516.95 55.512C516.79 55.368 516.71 55.184 516.71 54.96C516.71 54.72 516.79 54.536 516.95 54.408C517.11 54.264 517.326 54.192 517.598 54.192H522.086ZM533.957 63.192C532.389 63.192 531.021 62.84 529.853 62.136C528.701 61.432 527.813 60.432 527.189 59.136C526.565 57.84 526.253 56.312 526.253 54.552C526.253 52.776 526.557 51.24 527.165 49.944C527.789 48.632 528.677 47.632 529.829 46.944C530.997 46.24 532.373 45.888 533.957 45.888C535.541 45.888 536.909 46.24 538.061 46.944C539.229 47.632 540.117 48.632 540.725 49.944C541.349 51.24 541.661 52.768 541.661 54.528C541.661 56.288 541.349 57.824 540.725 59.136C540.101 60.432 539.205 61.432 538.037 62.136C536.885 62.84 535.525 63.192 533.957 63.192ZM533.957 61.512C535.749 61.512 537.141 60.912 538.133 59.712C539.141 58.496 539.645 56.768 539.645 54.528C539.645 52.288 539.149 50.568 538.157 49.368C537.165 48.168 535.765 47.568 533.957 47.568C532.165 47.568 530.765 48.176 529.757 49.392C528.765 50.592 528.269 52.304 528.269 54.528C528.269 56.752 528.765 58.472 529.757 59.688C530.765 60.904 532.165 61.512 533.957 61.512Z" fill="#4722A4"/>
<path d="M667.542 163.5H563.848L542.137 130.5H686.213L667.542 163.5Z" fill="#4722A4" stroke="white" stroke-width="5"/>
<path d="M667.042 324H563.348L541.637 357H685.713L667.042 324Z" fill="#4722A4" stroke="white" stroke-width="5"/>
<path d="M557.82 320.136L514.099 244.408L472.173 247.225L533.268 352.967L557.82 320.136Z" fill="#4722A4" stroke="white" stroke-width="5"/>
<path d="M671.71 167.736L718.174 241.836L760.046 237.739L694.424 134.539L671.71 167.736Z" fill="#4722A4" stroke="white" stroke-width="5"/>
<path d="M514.592 238.97L556.952 167.361L533.216 134.563L472.318 238.089L514.592 238.97Z" fill="#4722A4" stroke="white" stroke-width="5"/>
<path d="M717.757 247.477L675.28 319.282L694.566 352.621L759.499 247.047L717.757 247.477Z" fill="#4722A4" stroke="white" stroke-width="5"/>
<path fill-rule="evenodd" clip-rule="evenodd" d="M1007.08 326.466L1054.74 247.636L1007.08 170.5L900.664 170.5L853 247.636L900.664 326.466H1007.08Z" fill="white"/>
<path d="M889.976 264.384C887.576 264.384 885.272 264.032 883.064 263.328C880.888 262.592 879.144 261.616 877.832 260.4C877.352 259.952 877.112 259.392 877.112 258.72C877.112 258.272 877.24 257.888 877.496 257.568C877.752 257.216 878.056 257.04 878.408 257.04C878.824 257.04 879.272 257.216 879.752 257.568C882.728 259.872 886.12 261.024 889.928 261.024C892.68 261.024 894.792 260.496 896.264 259.44C897.736 258.384 898.472 256.88 898.472 254.928C898.472 253.808 898.12 252.912 897.416 252.24C896.712 251.536 895.784 250.976 894.632 250.56C893.48 250.144 891.928 249.712 889.976 249.264C887.352 248.656 885.192 248.016 883.496 247.344C881.832 246.672 880.472 245.712 879.416 244.464C878.392 243.216 877.88 241.584 877.88 239.568C877.88 237.648 878.392 235.952 879.416 234.48C880.472 232.976 881.928 231.824 883.784 231.024C885.672 230.192 887.816 229.776 890.216 229.776C892.456 229.776 894.536 230.128 896.456 230.832C898.408 231.504 900.04 232.48 901.352 233.76C901.864 234.272 902.12 234.832 902.12 235.44C902.12 235.888 901.992 236.288 901.736 236.64C901.48 236.96 901.176 237.12 900.824 237.12C900.472 237.12 900.008 236.944 899.432 236.592C897.864 235.312 896.408 234.416 895.064 233.904C893.72 233.392 892.104 233.136 890.216 233.136C887.56 233.136 885.496 233.696 884.024 234.816C882.552 235.904 881.816 237.44 881.816 239.424C881.816 241.12 882.456 242.4 883.736 243.264C885.048 244.096 887.048 244.832 889.736 245.472C892.648 246.176 894.936 246.832 896.6 247.44C898.264 248.016 899.64 248.896 900.728 250.08C901.848 251.264 902.408 252.848 902.408 254.832C902.408 256.72 901.88 258.384 900.824 259.824C899.8 261.264 898.344 262.384 896.456 263.184C894.568 263.984 892.408 264.384 889.976 264.384ZM910.193 264.24C909.617 264.24 909.137 264.08 908.753 263.76C908.401 263.408 908.225 262.928 908.225 262.32V242.064C908.225 241.456 908.401 240.992 908.753 240.672C909.137 240.32 909.617 240.144 910.193 240.144C910.769 240.144 911.233 240.32 911.585 240.672C911.937 240.992 912.113 241.456 912.113 242.064V262.32C912.113 262.96 911.937 263.44 911.585 263.76C911.233 264.08 910.769 264.24 910.193 264.24ZM910.193 235.104C909.425 235.104 908.801 234.88 908.321 234.432C907.841 233.984 907.601 233.392 907.601 232.656C907.601 231.952 907.841 231.376 908.321 230.928C908.801 230.48 909.425 230.256 910.193 230.256C910.961 230.256 911.585 230.48 912.065 230.928C912.545 231.376 912.785 231.952 912.785 232.656C912.785 233.392 912.545 233.984 912.065 234.432C911.585 234.88 910.961 235.104 910.193 235.104ZM950.005 229.92C950.613 229.92 951.077 230.112 951.397 230.496C951.749 230.848 951.925 231.328 951.925 231.936V262.32C951.925 262.896 951.765 263.36 951.445 263.712C951.125 264.064 950.677 264.24 950.101 264.24C949.525 264.24 949.093 264.064 948.805 263.712C948.517 263.36 948.373 262.896 948.373 262.32V237.792L937.957 257.76C937.509 258.688 936.853 259.152 935.989 259.152C935.157 259.152 934.501 258.688 934.021 257.76L923.557 238.032V262.32C923.557 262.896 923.397 263.36 923.077 263.712C922.789 264.064 922.357 264.24 921.781 264.24C921.205 264.24 920.757 264.064 920.437 263.712C920.117 263.36 919.957 262.896 919.957 262.32V231.936C919.957 231.328 920.133 230.848 920.485 230.496C920.837 230.112 921.317 229.92 921.925 229.92C922.725 229.92 923.365 230.384 923.845 231.312L936.037 254.688L948.085 231.312C948.341 230.8 948.613 230.448 948.901 230.256C949.221 230.032 949.589 229.92 950.005 229.92ZM990.365 229.92C990.973 229.92 991.437 230.112 991.757 230.496C992.109 230.848 992.285 231.328 992.285 231.936V262.32C992.285 262.896 992.125 263.36 991.805 263.712C991.485 264.064 991.037 264.24 990.461 264.24C989.885 264.24 989.453 264.064 989.165 263.712C988.877 263.36 988.733 262.896 988.733 262.32V237.792L978.317 257.76C977.869 258.688 977.213 259.152 976.349 259.152C975.517 259.152 974.861 258.688 974.381 257.76L963.917 238.032V262.32C963.917 262.896 963.757 263.36 963.437 263.712C963.149 264.064 962.717 264.24 962.141 264.24C961.565 264.24 961.117 264.064 960.797 263.712C960.477 263.36 960.317 262.896 960.317 262.32V231.936C960.317 231.328 960.493 230.848 960.845 230.496C961.197 230.112 961.677 229.92 962.285 229.92C963.085 229.92 963.725 230.384 964.205 231.312L976.397 254.688L988.445 231.312C988.701 230.8 988.973 230.448 989.261 230.256C989.581 230.032 989.949 229.92 990.365 229.92ZM1029.81 261.744C1029.94 262 1030 262.272 1030 262.56C1030 263.04 1029.81 263.44 1029.43 263.76C1029.08 264.08 1028.64 264.24 1028.13 264.24C1027.33 264.24 1026.77 263.856 1026.45 263.088L1023.04 255.312H1004.95L1001.49 263.088C1001.17 263.856 1000.61 264.24 999.812 264.24C999.3 264.24 998.852 264.08 998.468 263.76C998.084 263.408 997.892 262.992 997.892 262.512C997.892 262.256 997.956 262 998.084 261.744L1011.81 231.216C1012 230.768 1012.29 230.432 1012.68 230.208C1013.06 229.984 1013.48 229.872 1013.92 229.872C1014.4 229.872 1014.84 230 1015.22 230.256C1015.6 230.48 1015.89 230.8 1016.08 231.216L1029.81 261.744ZM1021.6 252.048L1013.97 234.816L1006.39 252.048H1021.6Z" fill="black"/>
<path d="M1005.54 168.5H901.848L880.137 135.5H1024.21L1005.54 168.5Z" fill="black" stroke="white" stroke-width="5"/>
<path d="M1005.04 329H901.348L879.637 362H1023.71L1005.04 329Z" fill="black" stroke="white" stroke-width="5"/>
<path d="M895.82 325.136L852.099 249.408L810.173 252.225L871.268 357.967L895.82 325.136Z" fill="black" stroke="white" stroke-width="5"/>
<path d="M1009.71 172.736L1056.17 246.836L1098.05 242.739L1032.42 139.539L1009.71 172.736Z" fill="black" stroke="white" stroke-width="5"/>
<path d="M852.592 243.97L894.952 172.361L871.216 139.563L810.318 243.089L852.592 243.97Z" fill="black" stroke="white" stroke-width="5"/>
<path d="M1055.76 252.477L1013.28 324.282L1032.57 357.621L1097.5 252.047L1055.76 252.477Z" fill="black" stroke="white" stroke-width="5"/>
<rect x="43" y="133" width="108" height="106" rx="20" fill="#EEEEEE"/>
<rect x="307" y="133" width="109" height="106" rx="20" fill="url(#paint0_linear)"/>
<rect x="174" y="133" width="110" height="106" rx="20" fill="#4722A4"/>
<rect x="43" y="258" width="108" height="106" rx="20" fill="url(#paint1_linear)"/>
<rect x="307" y="258" width="109" height="106" rx="20" fill="url(#paint2_linear)"/>
<rect x="174" y="258" width="110" height="106" rx="20" fill="url(#paint3_linear)"/>
<defs>
<linearGradient id="paint0_linear" x1="361.5" y1="133" x2="361.5" y2="239" gradientUnits="userSpaceOnUse">
<stop/>
<stop offset="1"/>
</linearGradient>
<linearGradient id="paint1_linear" x1="97" y1="258" x2="97" y2="364" gradientUnits="userSpaceOnUse">
<stop stop-color="#EEEEEE"/>
<stop offset="1" stop-color="white"/>
</linearGradient>
<linearGradient id="paint2_linear" x1="361.5" y1="258" x2="361.5" y2="364" gradientUnits="userSpaceOnUse">
<stop stop-color="#4722A4"/>
<stop offset="1"/>
</linearGradient>
<linearGradient id="paint3_linear" x1="229" y1="258" x2="229" y2="364" gradientUnits="userSpaceOnUse">
<stop stop-color="#4722A4"/>
<stop offset="1" stop-color="#4722A4" stop-opacity="0.5"/>
</linearGradient>
</defs>
</svg>
