<svg width="306" height="241" viewBox="0 0 306 241" fill="none" xmlns="http://www.w3.org/2000/svg">
<path fill-rule="evenodd" clip-rule="evenodd" d="M206.075 197.466L253.739 118.636L206.075 41.5L99.6636 41.5L52 118.636L99.6636 197.466H206.075Z" fill="white"/>
<path d="M88.976 135.384C86.576 135.384 84.272 135.032 82.064 134.328C79.888 133.592 78.144 132.616 76.832 131.4C76.352 130.952 76.112 130.392 76.112 129.72C76.112 129.272 76.24 128.888 76.496 128.568C76.752 128.216 77.056 128.04 77.408 128.04C77.824 128.04 78.272 128.216 78.752 128.568C81.728 130.872 85.12 132.024 88.928 132.024C91.68 132.024 93.792 131.496 95.264 130.44C96.736 129.384 97.472 127.88 97.472 125.928C97.472 124.808 97.12 123.912 96.416 123.24C95.712 122.536 94.784 121.976 93.632 121.56C92.48 121.144 90.928 120.712 88.976 120.264C86.352 119.656 84.192 119.016 82.496 118.344C80.832 117.672 79.472 116.712 78.416 115.464C77.392 114.216 76.88 112.584 76.88 110.568C76.88 108.648 77.392 106.952 78.416 105.48C79.472 103.976 80.928 102.824 82.784 102.024C84.672 101.192 86.816 100.776 89.216 100.776C91.456 100.776 93.536 101.128 95.456 101.832C97.408 102.504 99.04 103.48 100.352 104.76C100.864 105.272 101.12 105.832 101.12 106.44C101.12 106.888 100.992 107.288 100.736 107.64C100.48 107.96 100.176 108.12 99.824 108.12C99.472 108.12 99.008 107.944 98.432 107.592C96.864 106.312 95.408 105.416 94.064 104.904C92.72 104.392 91.104 104.136 89.216 104.136C86.56 104.136 84.496 104.696 83.024 105.816C81.552 106.904 80.816 108.44 80.816 110.424C80.816 112.12 81.456 113.4 82.736 114.264C84.048 115.096 86.048 115.832 88.736 116.472C91.648 117.176 93.936 117.832 95.6 118.44C97.264 119.016 98.64 119.896 99.728 121.08C100.848 122.264 101.408 123.848 101.408 125.832C101.408 127.72 100.88 129.384 99.824 130.824C98.8 132.264 97.344 133.384 95.456 134.184C93.568 134.984 91.408 135.384 88.976 135.384ZM109.193 135.24C108.617 135.24 108.137 135.08 107.753 134.76C107.401 134.408 107.225 133.928 107.225 133.32V113.064C107.225 112.456 107.401 111.992 107.753 111.672C108.137 111.32 108.617 111.144 109.193 111.144C109.769 111.144 110.233 111.32 110.585 111.672C110.937 111.992 111.113 112.456 111.113 113.064V133.32C111.113 133.96 110.937 134.44 110.585 134.76C110.233 135.08 109.769 135.24 109.193 135.24ZM109.193 106.104C108.425 106.104 107.801 105.88 107.321 105.432C106.841 104.984 106.601 104.392 106.601 103.656C106.601 102.952 106.841 102.376 107.321 101.928C107.801 101.48 108.425 101.256 109.193 101.256C109.961 101.256 110.585 101.48 111.065 101.928C111.545 102.376 111.785 102.952 111.785 103.656C111.785 104.392 111.545 104.984 111.065 105.432C110.585 105.88 109.961 106.104 109.193 106.104ZM149.005 100.92C149.613 100.92 150.077 101.112 150.397 101.496C150.749 101.848 150.925 102.328 150.925 102.936V133.32C150.925 133.896 150.765 134.36 150.445 134.712C150.125 135.064 149.677 135.24 149.101 135.24C148.525 135.24 148.093 135.064 147.805 134.712C147.517 134.36 147.373 133.896 147.373 133.32V108.792L136.957 128.76C136.509 129.688 135.853 130.152 134.989 130.152C134.157 130.152 133.501 129.688 133.021 128.76L122.557 109.032V133.32C122.557 133.896 122.397 134.36 122.077 134.712C121.789 135.064 121.357 135.24 120.781 135.24C120.205 135.24 119.757 135.064 119.437 134.712C119.117 134.36 118.957 133.896 118.957 133.32V102.936C118.957 102.328 119.133 101.848 119.485 101.496C119.837 101.112 120.317 100.92 120.925 100.92C121.725 100.92 122.365 101.384 122.845 102.312L135.037 125.688L147.085 102.312C147.341 101.8 147.613 101.448 147.901 101.256C148.221 101.032 148.589 100.92 149.005 100.92ZM189.365 100.92C189.973 100.92 190.437 101.112 190.757 101.496C191.109 101.848 191.285 102.328 191.285 102.936V133.32C191.285 133.896 191.125 134.36 190.805 134.712C190.485 135.064 190.037 135.24 189.461 135.24C188.885 135.24 188.453 135.064 188.165 134.712C187.877 134.36 187.733 133.896 187.733 133.32V108.792L177.317 128.76C176.869 129.688 176.213 130.152 175.349 130.152C174.517 130.152 173.861 129.688 173.381 128.76L162.917 109.032V133.32C162.917 133.896 162.757 134.36 162.437 134.712C162.149 135.064 161.717 135.24 161.141 135.24C160.565 135.24 160.117 135.064 159.797 134.712C159.477 134.36 159.317 133.896 159.317 133.32V102.936C159.317 102.328 159.493 101.848 159.845 101.496C160.197 101.112 160.677 100.92 161.285 100.92C162.085 100.92 162.725 101.384 163.205 102.312L175.397 125.688L187.445 102.312C187.701 101.8 187.973 101.448 188.261 101.256C188.581 101.032 188.949 100.92 189.365 100.92ZM228.812 132.744C228.94 133 229.004 133.272 229.004 133.56C229.004 134.04 228.812 134.44 228.428 134.76C228.076 135.08 227.644 135.24 227.132 135.24C226.332 135.24 225.772 134.856 225.452 134.088L222.044 126.312H203.948L200.492 134.088C200.172 134.856 199.612 135.24 198.812 135.24C198.3 135.24 197.852 135.08 197.468 134.76C197.084 134.408 196.892 133.992 196.892 133.512C196.892 133.256 196.956 133 197.084 132.744L210.812 102.216C211.004 101.768 211.292 101.432 211.676 101.208C212.06 100.984 212.476 100.872 212.924 100.872C213.404 100.872 213.836 101 214.22 101.256C214.604 101.48 214.892 101.8 215.084 102.216L228.812 132.744ZM220.604 123.048L212.972 105.816L205.388 123.048H220.604Z" fill="#4722A4"/>
<path d="M74.5 4L99.5 42H206L227.5 4H74.5Z" fill="#4722A4" stroke="white" stroke-width="5"/>
<path d="M74 235.5L99 197.5H205.5L227 235.5H74Z" fill="#4722A4" stroke="white" stroke-width="5"/>
<path d="M5 121L52.4854 117.81L97.8095 196.313L70 233.5L5 121Z" fill="#4722A4" stroke="white" stroke-width="5"/>
<path d="M301.339 115.831L253.878 120.475L205.722 43.6758L231.5 6.00005L301.339 115.831Z" fill="#4722A4" stroke="white" stroke-width="5"/>
<path d="M70 6.00006L96.9382 43.2229L52.9998 117.5L5.00001 116.5L70 6.00006Z" fill="#4722A4" stroke="white" stroke-width="5"/>
<path d="M231.5 233.5L209.384 195.268L253.322 120.991L301 120.5L231.5 233.5Z" fill="#4722A4" stroke="white" stroke-width="5"/>
</svg>
