<svg width="102" height="102" viewBox="0 0 102 102" fill="none" xmlns="http://www.w3.org/2000/svg">
<circle cx="51" cy="51" r="51" transform="rotate(90 51 51)" fill="url(#paint0_linear)"/>
<path d="M59.376 63.408C59.792 63.408 60.128 63.536 60.384 63.792C60.64 64.016 60.768 64.32 60.768 64.704C60.768 65.12 60.64 65.44 60.384 65.664C60.16 65.888 59.824 66 59.376 66H43.68C43.264 66 42.928 65.888 42.672 65.664C42.448 65.44 42.336 65.12 42.336 64.704C42.336 64.32 42.448 64.016 42.672 63.792C42.928 63.536 43.264 63.408 43.68 63.408H50.064V36L44.544 39.6C44.384 39.728 44.176 39.792 43.92 39.792C43.568 39.792 43.248 39.632 42.96 39.312C42.704 38.992 42.576 38.624 42.576 38.208C42.576 37.76 42.784 37.392 43.2 37.104L50.4 32.304C50.816 32.048 51.216 31.92 51.6 31.92C52.016 31.92 52.352 32.064 52.608 32.352C52.896 32.608 53.04 32.976 53.04 33.456V63.408H59.376Z" fill="white"/>
<defs>
<linearGradient id="paint0_linear" x1="51" y1="-3.8147e-06" x2="51" y2="102" gradientUnits="userSpaceOnUse">
<stop stop-color="#4722A4"/>
<stop offset="1" stop-color="#6E35FF" stop-opacity="0.62"/>
</linearGradient>
</defs>
</svg>
